<svg width="52" height="53" viewBox="0 0 52 53" fill="none" xmlns="http://www.w3.org/2000/svg">
<ellipse cx="26" cy="26.5" rx="26" ry="26.5" fill="#2C5AB4"/>
<path d="M29.8748 29.0834C26.4261 29.0834 19.5415 30.8013 19.5415 34.2501V36.8334H40.2082V34.2501C40.2082 30.8013 33.3236 29.0834 29.8748 29.0834ZM18.2498 23.9167V20.0417H15.6665V23.9167H11.7915V26.5001H15.6665V30.3751H18.2498V26.5001H22.1248V23.9167M29.8748 26.5001C31.2451 26.5001 32.5593 25.9557 33.5282 24.9868C34.4972 24.0179 35.0415 22.7037 35.0415 21.3334C35.0415 19.9631 34.4972 18.649 33.5282 17.68C32.5593 16.7111 31.2451 16.1667 29.8748 16.1667C28.5046 16.1667 27.1904 16.7111 26.2215 17.68C25.2525 18.649 24.7082 19.9631 24.7082 21.3334C24.7082 22.7037 25.2525 24.0179 26.2215 24.9868C27.1904 25.9557 28.5046 26.5001 29.8748 26.5001Z" fill="white"/>
</svg>
