<svg width="1920" height="1381" viewBox="0 0 1920 1381" fill="none" xmlns="http://www.w3.org/2000/svg">
<g clip-path="url(#clip0_3752_17432)">
<path d="M-399.533 543.371L-408.684 516.308C-408.41 516.213 -378.915 505.996 -348.113 481.972C-307.791 450.521 -284.201 411.287 -277.999 365.354C-271.569 317.733 -250.521 275.447 -217.133 243.066C-186.179 213.046 -145.818 193.257 -103.487 187.344C-62.1138 181.566 -21.424 188.982 14.174 208.793C53.0015 230.401 84.282 266.422 104.633 312.963C137.481 388.083 192.277 435.31 267.495 453.33C324.503 466.987 372.626 457.987 373.107 457.895L378.592 485.932C376.423 486.356 324.806 496.167 261.97 481.381C224.835 472.643 191.461 457.095 162.776 435.171C126.988 407.818 98.6117 370.549 78.4316 324.4C43.9505 245.548 -22.5653 204.883 -99.5281 215.637C-165.177 224.806 -237.06 275.837 -249.663 369.173C-256.84 422.334 -285.081 469.343 -331.33 505.12C-365.864 531.836 -398.174 542.913 -399.533 543.371Z" fill="#204283"/>
<path d="M363.628 466.179C363.628 466.179 164.246 499.685 86.0258 306.69C7.80603 113.694 -221.719 233.474 -267.424 345.278C-313.13 457.079 -410.809 502.608 -410.809 502.608" stroke="#2861A4" stroke-width="2.38484" stroke-linecap="round" stroke-linejoin="round"/>
<path d="M1501.52 900.006C1474.4 900.006 1456.11 898.736 1453.67 898.558L1456.22 863.874C1458.05 864.01 1629.39 875.783 1720.81 823.766C1709.58 815.533 1699.16 806.252 1689.69 796.049C1657.76 761.545 1644.24 724.272 1653.51 696.346C1661.62 671.924 1679.06 657.892 1701.36 657.847H1701.46C1735.86 657.847 1775.62 692.906 1790.15 736.063C1800.25 766.071 1796.67 794.611 1780.59 817.818C1805.9 828.14 1834.54 832.561 1863.72 825.37C1929.86 809.08 1981.9 737.009 2014.21 616.949L2047.82 625.978C2028.99 695.967 2003.39 751.526 1971.75 791.114C1943.05 827.026 1909.5 849.913 1872.06 859.137C1839.09 867.256 1803.43 864.312 1768.93 850.614C1763.88 848.609 1758.87 846.381 1753.91 843.928C1684.97 892.532 1567.31 900.006 1501.52 900.006ZM1701.47 692.624H1701.43C1698.43 692.629 1691.41 692.644 1686.55 707.296C1682.4 719.798 1689.66 744.791 1715.25 772.443C1725.47 783.397 1736.96 793.094 1749.49 801.327C1764.27 782.896 1762.27 762.345 1757.15 747.149C1746.81 716.422 1718.74 692.624 1701.47 692.624V692.624Z" fill="#204283"/>
<path d="M1770.46 809.164C1818.77 740.185 1703.83 633.385 1679.12 707.816C1652.16 788.991 1921.21 1008.36 2022.67 631.34" stroke="#2861A4" stroke-width="1.98736" stroke-linecap="round" stroke-linejoin="round"/>
<path d="M1490.73 1035.49C1490.73 1038.8 1490.08 1042.08 1488.81 1045.14C1487.54 1048.2 1485.69 1050.98 1483.34 1053.33C1481 1055.67 1478.22 1057.52 1475.15 1058.79C1472.09 1060.06 1468.81 1060.71 1465.49 1060.71H438.343C431.649 1060.71 425.229 1058.05 420.495 1053.33C415.761 1048.6 413.102 1042.18 413.102 1035.49V1035.49C413.101 1032.18 413.754 1028.9 415.023 1025.84C416.291 1022.78 418.151 1020 420.494 1017.66C422.838 1015.32 425.621 1013.46 428.684 1012.19C431.746 1010.93 435.028 1010.27 438.343 1010.27H1465.49C1468.81 1010.27 1472.09 1010.93 1475.15 1012.19C1478.22 1013.46 1481 1015.32 1483.34 1017.66C1485.69 1020 1487.55 1022.78 1488.81 1025.84C1490.08 1028.9 1490.73 1032.18 1490.73 1035.49Z" fill="#A5C5E8"/>
<path d="M880.773 379.962L928.78 368.082C928.78 368.082 939.787 375.985 930.35 387.721C929.801 388.401 880.773 379.962 880.773 379.962Z" fill="#5786C5"/>
<path d="M880.773 379.962L928.78 368.082C928.78 368.082 939.787 375.985 930.35 387.721C929.801 388.401 880.773 379.962 880.773 379.962Z" stroke="#2861A4" stroke-width="1.19242" stroke-miterlimit="10"/>
<path d="M874.801 353.259L906.526 315.352C906.526 315.352 920.081 315.236 919.398 330.275C919.357 331.147 874.801 353.259 874.801 353.259Z" fill="#5786C5"/>
<path d="M874.801 353.259L906.526 315.352C906.526 315.352 920.081 315.236 919.398 330.275C919.357 331.147 874.801 353.259 874.801 353.259Z" stroke="#2861A4" stroke-width="1.19242" stroke-miterlimit="10"/>
<path d="M855.353 355.604L840.859 308.361C840.859 308.361 848.155 296.948 860.4 305.722C861.11 306.233 855.353 355.604 855.353 355.604Z" fill="#5786C5"/>
<path d="M855.353 355.604L840.859 308.361C840.859 308.361 848.155 296.948 860.4 305.722C861.11 306.233 855.353 355.604 855.353 355.604Z" stroke="#2861A4" stroke-width="1.19242" stroke-miterlimit="10"/>
<path d="M946.057 988.338L902.678 991.732C902.678 991.732 894.265 983.288 904.15 974.463C904.723 973.951 946.057 988.338 946.057 988.338Z" fill="#5786C5"/>
<path d="M946.057 988.338L902.678 991.732C902.678 991.732 894.265 983.288 904.15 974.463C904.723 973.951 946.057 988.338 946.057 988.338Z" stroke="#2861A4" stroke-width="1.19242" stroke-miterlimit="10"/>
<path d="M947.389 1012.38L914.384 1040.71C914.384 1040.71 902.604 1038.85 905.364 1025.9C905.526 1025.15 947.389 1012.38 947.389 1012.38Z" fill="#5786C5"/>
<path d="M947.389 1012.38L914.384 1040.71C914.384 1040.71 902.604 1038.85 905.364 1025.9C905.526 1025.15 947.389 1012.38 947.389 1012.38Z" stroke="#2861A4" stroke-width="1.19242" stroke-miterlimit="10"/>
<path d="M964.605 1013.14L970.367 1056.23C970.367 1056.23 962.388 1065.08 953.025 1055.7C952.484 1055.16 964.605 1013.14 964.605 1013.14Z" fill="#5786C5"/>
<path d="M964.605 1013.14L970.367 1056.23C970.367 1056.23 962.388 1065.08 953.025 1055.7C952.484 1055.16 964.605 1013.14 964.605 1013.14Z" stroke="#2861A4" stroke-width="1.19242" stroke-miterlimit="10"/>
<path d="M751.118 788.159H744.601L741.889 804.74H733.833L736.545 788.159H727.559V780.758H737.76L739.541 770.081H730.595V762.68H740.755L743.548 745.855H751.563L748.811 762.68H755.328L758.121 745.855H766.177L763.383 762.68H772.734V770.081H762.169L760.387 780.758H769.658V788.159H759.173L756.461 804.74H748.405L751.118 788.159ZM745.815 780.758H752.332L754.113 770.081H747.596L745.815 780.758Z" fill="#A5C5E8"/>
<path d="M615.684 1023.2C612.273 1023.16 609.014 1021.79 606.602 1019.38C604.19 1016.97 602.818 1013.72 602.779 1010.31V961.601H452.22C448.81 961.562 445.551 960.191 443.139 957.782C440.728 955.373 439.356 952.117 439.316 948.71V898.091C439.316 889.816 441.388 882.972 445.53 877.558L588.439 697.53C591.307 694.03 593.936 691.722 596.326 690.605C598.715 689.494 601.981 688.937 606.124 688.934H678.296C681.706 688.974 684.965 690.345 687.377 692.755C689.788 695.164 691.16 698.42 691.2 701.827V885.197H732.305C735.715 885.238 738.974 886.609 741.386 889.019C743.797 891.428 745.17 894.684 745.21 898.091V948.71C745.17 952.117 743.798 955.373 741.386 957.782C738.975 960.191 735.715 961.562 732.305 961.601H691.2V1010.31C691.161 1013.72 689.788 1016.97 687.377 1019.38C684.965 1021.79 681.706 1023.16 678.296 1023.2H615.684ZM605.168 885.197V797.333L535.385 885.197H605.168Z" fill="#A5C5E8"/>
<path d="M980.251 538.672C1004.15 538.672 1024.7 542.174 1041.91 549.178C1059.11 556.185 1073.37 565.576 1084.68 577.351C1096 589.143 1104.64 603.232 1110.02 618.658C1115.62 634.582 1118.92 651.225 1119.81 668.082C1120.45 681.774 1120.77 696.1 1120.77 711.06C1120.77 726.028 1120.45 740.035 1119.81 753.082C1118.92 769.939 1115.62 786.582 1110.02 802.506C1104.64 817.934 1096 832.022 1084.68 843.813C1073.37 855.595 1059.11 864.986 1041.91 871.987C1024.7 878.985 1004.15 882.487 980.251 882.492C956.352 882.492 935.8 878.99 918.593 871.987C901.388 864.988 887.129 855.597 875.817 843.813C864.495 832.026 855.854 817.937 850.484 802.506C844.874 786.583 841.574 769.94 840.686 753.082C840.044 740.032 839.725 726.025 839.731 711.06C839.731 696.1 840.049 681.774 840.686 668.082C841.574 651.224 844.874 634.581 850.484 618.658C855.856 603.229 864.497 589.139 875.817 577.351C887.123 565.578 901.382 556.187 918.593 549.178C935.8 542.179 956.353 538.677 980.251 538.672ZM1031.39 750.694C1032.66 723.64 1032.66 696.899 1031.39 670.47C1030.84 663.058 1029.64 655.708 1027.81 648.504C1026.23 642.187 1023.38 636.257 1019.44 631.074C1015.39 625.968 1010.14 621.947 1004.15 619.375C997.771 616.509 989.806 615.076 980.251 615.077C970.691 615.077 962.725 616.509 956.352 619.375C950.361 621.946 945.105 625.966 941.058 631.074C937.1 636.28 934.179 642.197 932.454 648.504C930.467 655.667 929.344 663.041 929.108 670.47C927.511 697.188 927.511 723.977 929.108 750.694C929.345 758.107 930.387 765.472 932.215 772.661C933.801 779.019 936.734 784.963 940.818 790.091C944.989 795.172 950.315 799.184 956.352 801.791C962.723 804.655 970.689 806.087 980.251 806.087C989.81 806.087 997.775 804.655 1004.15 801.791C1010.18 799.181 1015.51 795.17 1019.68 790.091C1023.76 784.96 1026.69 779.017 1028.28 772.661C1030.11 765.471 1031.15 758.107 1031.39 750.694V750.694Z" fill="#A5C5E8"/>
<path d="M1351.87 652.211C1348.46 652.17 1345.2 650.799 1342.79 648.39C1340.37 645.98 1339 642.724 1338.96 639.317V590.608H1188.4C1184.99 590.569 1181.73 589.199 1179.32 586.79C1176.91 584.38 1175.54 581.124 1175.5 577.717V527.098C1175.5 518.824 1177.57 511.979 1181.71 506.565L1324.62 326.537C1327.49 323.038 1330.12 320.73 1332.51 319.613C1334.9 318.501 1338.16 317.944 1342.31 317.941H1414.48C1417.89 317.981 1421.15 319.352 1423.56 321.762C1425.97 324.171 1427.34 327.428 1427.38 330.835V514.205H1468.49C1471.9 514.245 1475.16 515.616 1477.57 518.026C1479.98 520.435 1481.35 523.691 1481.39 527.098V577.717C1481.35 581.124 1479.98 584.38 1477.57 586.789C1475.16 589.198 1471.9 590.569 1468.49 590.608H1427.38V639.317C1427.34 642.724 1425.97 645.981 1423.56 648.39C1421.15 650.8 1417.89 652.171 1414.48 652.211H1351.87ZM1341.35 514.205V426.341L1271.57 514.205H1341.35Z" fill="#A5C5E8"/>
<path d="M607.249 987.347C603.839 987.308 600.579 985.937 598.168 983.528C595.756 981.118 594.384 977.862 594.344 974.455V925.746H443.787C440.376 925.707 437.117 924.336 434.705 921.927C432.294 919.517 430.922 916.261 430.883 912.854V862.235C430.883 853.962 432.954 847.117 437.096 841.702L580.005 661.674C582.872 658.175 585.501 655.867 587.891 654.75C590.281 653.639 593.547 653.082 597.69 653.078H669.862C673.272 653.118 676.532 654.489 678.943 656.898C681.355 659.308 682.727 662.565 682.766 665.972V849.342H723.871C727.282 849.381 730.541 850.753 732.952 853.162C735.364 855.572 736.736 858.828 736.776 862.235V912.854C736.737 916.261 735.364 919.517 732.953 921.927C730.541 924.336 727.282 925.707 723.871 925.746H682.766V974.455C682.726 977.862 681.354 981.119 678.943 983.528C676.531 985.937 673.272 987.308 669.862 987.347H607.249ZM596.733 849.342V761.477L526.952 849.342H596.733Z" stroke="#2861A4" stroke-width="1.19242" stroke-linecap="round" stroke-linejoin="round"/>
<path d="M937.985 556.062C961.882 556.062 982.434 559.564 999.64 566.568C1016.85 573.575 1031.11 582.966 1042.42 594.742C1053.73 606.534 1062.37 620.622 1067.75 636.049C1073.36 651.973 1076.66 668.616 1077.55 685.473C1078.18 699.164 1078.5 713.49 1078.5 728.451C1078.5 743.418 1078.19 757.425 1077.55 770.474C1076.66 787.33 1073.36 803.972 1067.75 819.896C1062.38 835.323 1053.74 849.412 1042.42 861.203C1031.1 872.985 1016.84 882.376 999.64 889.377C982.435 896.376 961.883 899.878 937.985 899.883C914.086 899.883 893.534 896.381 876.328 889.377C859.121 882.379 844.862 872.988 833.551 861.203C822.229 849.416 813.588 835.326 808.219 819.896C802.608 803.973 799.309 787.33 798.421 770.474C797.778 757.422 797.46 743.415 797.465 728.451C797.465 713.49 797.784 699.164 798.421 685.473C799.309 668.615 802.608 651.972 808.219 636.049C813.59 620.619 822.231 606.53 833.551 594.742C844.857 582.968 859.116 573.576 876.328 566.568C893.535 559.569 914.087 556.067 937.985 556.062ZM989.127 768.084C990.395 741.03 990.395 714.289 989.127 687.86C988.574 680.448 987.374 673.098 985.541 665.894C983.964 659.578 981.119 653.648 977.177 648.464C973.128 643.358 967.872 639.338 961.882 636.766C955.504 633.899 947.538 632.466 937.985 632.466C928.424 632.466 920.458 633.9 914.086 636.766C908.095 639.336 902.839 643.357 898.791 648.464C894.833 653.671 891.913 659.588 890.189 665.894C888.201 673.057 887.078 680.431 886.842 687.86C885.244 714.578 885.244 741.367 886.842 768.084C887.079 775.497 888.121 782.862 889.949 790.051C891.534 796.409 894.468 802.353 898.552 807.481C902.723 812.562 908.049 816.573 914.086 819.181C920.457 822.046 928.423 823.479 937.985 823.478C947.543 823.478 955.509 822.046 961.882 819.181C967.917 816.571 973.243 812.56 977.416 807.481C981.494 802.35 984.428 796.407 986.019 790.051C987.841 782.861 988.883 775.497 989.127 768.084V768.084Z" stroke="#2861A4" stroke-width="1.19242" stroke-linecap="round" stroke-linejoin="round"/>
<path d="M1312.51 669.601C1309.1 669.562 1305.84 668.191 1303.43 665.781C1301.02 663.372 1299.65 660.115 1299.61 656.708V608H1149.05C1145.64 607.961 1142.38 606.59 1139.97 604.181C1137.56 601.772 1136.18 598.515 1136.14 595.108V544.489C1136.14 536.215 1138.22 529.37 1142.36 523.955L1285.27 343.928C1288.13 340.429 1290.76 338.12 1293.15 337.003C1295.54 335.892 1298.81 335.335 1302.95 335.332H1375.12C1378.53 335.372 1381.79 336.743 1384.2 339.153C1386.62 341.562 1387.99 344.818 1388.03 348.225V531.596H1429.13C1432.54 531.636 1435.8 533.007 1438.21 535.417C1440.62 537.826 1442 541.082 1442.04 544.489V595.108C1442 598.515 1440.63 601.771 1438.21 604.18C1435.8 606.589 1432.54 607.96 1429.13 608H1388.03V656.708C1387.99 660.115 1386.62 663.372 1384.2 665.781C1381.79 668.19 1378.53 669.562 1375.12 669.601H1312.51ZM1301.99 531.596V443.731L1232.21 531.596H1301.99Z" stroke="#2861A4" stroke-width="1.19242" stroke-linecap="round" stroke-linejoin="round"/>
<path d="M440.809 1008.2H1447.78" stroke="#2861A4" stroke-width="1.19242" stroke-linecap="round" stroke-linejoin="round"/>
<path d="M626.815 977.617L618.113 1004.01L598.387 1003.47L604.905 981.499" fill="white"/>
<path d="M626.815 977.617L618.113 1004.01L598.387 1003.47L604.905 981.499" stroke="#2861A4" stroke-width="1.19242" stroke-linecap="round" stroke-linejoin="round"/>
<path d="M701.245 578.523L689.26 579.523C692.173 603.986 681.773 622.056 668.137 634.97L681.353 655.754C705.075 624.421 701.245 578.523 701.245 578.523Z" fill="white" stroke="#2861A4" stroke-width="1.19242" stroke-linecap="round" stroke-linejoin="round"/>
<path d="M618.863 662.408L629.945 683.674C654.523 680.944 670.71 669.815 681.354 655.756L668.138 634.973C647.284 654.72 618.863 662.408 618.863 662.408Z" fill="#A5C5E8" stroke="#2861A4" stroke-width="1.19242" stroke-linecap="round" stroke-linejoin="round"/>
<path d="M701.076 583.884L689.965 583.692C689.497 583.406 689.068 583.061 688.688 582.666C688.105 582.044 689.319 579.823 689.319 579.823C689.319 579.823 685.206 573.392 684.269 567.901C683.331 562.411 678.979 557.012 681.605 556.942C684.231 556.87 684.358 561.594 685.659 561.034C686.308 560.754 686.524 556.43 685.784 552.213C685.047 548 683.353 543.893 685.203 544.237C688.901 544.924 690.905 558.436 690.905 558.436C690.905 558.436 691.177 554.08 691.158 549.523C691.14 544.634 690.908 539.521 693.225 539.555C695.226 539.582 695.19 544.077 695.729 548.553C696.114 551.498 696.668 554.42 697.387 557.302C697.387 557.302 698.373 542.525 699.993 544.055C701.613 545.586 700.442 558.722 701.382 558.718C702.324 558.712 703.484 549.519 704.819 550.27C706.155 551.022 704.743 566.82 704.743 566.82C704.743 566.82 705.251 576.082 701.688 580.381C701.688 580.381 703.274 583.212 701.076 583.884Z" fill="#204283"/>
<path d="M674.689 628.314L662.832 635.723L679.505 662.357L691.362 654.948L674.689 628.314Z" fill="#A5C5E8" stroke="#2861A4" stroke-width="1.19242" stroke-linecap="round" stroke-linejoin="round"/>
<path d="M521.041 473.864C521.041 480.925 518.233 487.698 513.236 492.691C508.238 497.685 501.46 500.491 494.392 500.492H368.141C361.073 500.491 354.294 497.686 349.296 492.692C344.297 487.698 341.489 480.926 341.488 473.864V473.864C341.489 466.801 344.297 460.028 349.295 455.035C354.294 450.041 361.073 447.235 368.141 447.234H494.392C501.46 447.235 508.238 450.042 513.236 455.035C518.233 460.029 521.041 466.802 521.041 473.864V473.864Z" fill="white" stroke="#2861A4" stroke-width="1.19242" stroke-linecap="round" stroke-linejoin="round"/>
<path d="M486.302 479.28H372.034C366.583 479.277 361.293 477.429 357.028 474.038C352.762 470.647 349.772 465.912 348.546 460.605C346.566 464.277 345.574 468.4 345.666 472.57C345.758 476.739 346.932 480.814 349.072 484.395C351.212 487.976 354.245 490.941 357.875 493C361.505 495.06 365.608 496.143 369.783 496.144H484.052C487.684 496.153 491.271 495.341 494.544 493.769C497.817 492.196 500.691 489.903 502.95 487.062C505.21 484.221 506.796 480.906 507.591 477.365C508.385 473.824 508.366 470.15 507.536 466.617C505.471 470.446 502.406 473.645 498.668 475.875C494.929 478.104 490.656 479.281 486.302 479.28V479.28Z" fill="#A5C5E8"/>
<path d="M577.155 483.671C577.156 490.205 575.869 496.676 573.367 502.713C570.864 508.75 567.196 514.235 562.572 518.856C557.948 523.476 552.457 527.141 546.415 529.641C540.373 532.142 533.896 533.428 527.356 533.427V533.427C520.816 533.428 514.34 532.142 508.298 529.641C502.255 527.141 496.765 523.476 492.141 518.856C487.517 514.235 483.849 508.75 481.347 502.713C478.844 496.676 477.557 490.205 477.559 483.671V464.052C477.558 457.518 478.845 451.048 481.347 445.011C483.85 438.975 487.518 433.489 492.142 428.869C496.766 424.249 502.256 420.584 508.298 418.083C514.34 415.583 520.816 414.296 527.356 414.297V414.297C533.896 414.296 540.372 415.583 546.414 418.083C552.457 420.584 557.947 424.249 562.571 428.869C567.195 433.489 570.864 438.974 573.366 445.011C575.868 451.048 577.156 457.518 577.155 464.052V483.671Z" fill="white" stroke="#2861A4" stroke-width="1.19242" stroke-linecap="round" stroke-linejoin="round"/>
<path d="M542.275 506.724C536.485 506.725 530.752 505.586 525.403 503.373C520.054 501.159 515.193 497.915 511.099 493.824C507.005 489.734 503.758 484.878 501.543 479.533C499.328 474.189 498.188 468.46 498.189 462.676V445.306C498.184 439.597 499.294 433.941 501.456 428.656C495.47 432.687 490.567 438.126 487.179 444.495C483.791 450.864 482.022 457.967 482.027 465.179V482.549C482.027 492.759 485.577 502.652 492.071 510.536C498.564 518.421 507.597 523.807 517.625 525.773C527.653 527.739 538.053 526.164 547.048 521.317C556.042 516.469 563.071 508.65 566.934 499.197C559.654 504.117 551.064 506.739 542.275 506.724V506.724Z" fill="#A5C5E8"/>
<path d="M739.879 511.703C739.879 519.066 738.428 526.356 735.609 533.158C732.789 539.96 728.656 546.14 723.445 551.346C718.234 556.551 712.048 560.681 705.24 563.498C698.432 566.314 691.135 567.764 683.766 567.763H584.169C576.8 567.764 569.504 566.314 562.696 563.497C555.888 560.68 549.702 556.55 544.492 551.345C539.282 546.139 535.149 539.959 532.329 533.157C529.509 526.355 528.058 519.065 528.059 511.703V436.02C528.058 428.658 529.51 421.368 532.329 414.567C535.149 407.765 539.282 401.585 544.492 396.38C549.703 391.174 555.889 387.045 562.696 384.228C569.504 381.411 576.8 379.961 584.169 379.961H683.766C691.135 379.96 698.432 381.41 705.24 384.227C712.048 387.044 718.234 391.173 723.444 396.379C728.655 401.584 732.788 407.764 735.608 414.566C738.428 421.368 739.879 428.658 739.879 436.02V511.703Z" fill="white" stroke="#2861A4" stroke-width="1.19242" stroke-linecap="round" stroke-linejoin="round"/>
<path d="M702.635 534.64H610.063C603.214 534.64 596.432 533.293 590.105 530.674C583.777 528.056 578.027 524.218 573.184 519.379C568.342 514.541 564.5 508.797 561.879 502.475C559.258 496.153 557.91 489.377 557.91 482.534V412.189C557.906 405.648 559.14 399.166 561.545 393.082C552.969 397.441 545.767 404.085 540.737 412.28C535.708 420.475 533.046 429.901 533.047 439.514V509.86C533.046 516.702 534.395 523.478 537.016 529.8C539.637 536.122 543.478 541.866 548.321 546.704C553.164 551.543 558.913 555.381 565.241 557.999C571.568 560.618 578.35 561.965 585.199 561.965H677.771C688.238 561.964 698.464 558.817 707.117 552.933C715.77 547.048 722.451 538.697 726.29 528.968C718.966 532.704 710.858 534.648 702.635 534.64V534.64Z" fill="#A5C5E8"/>
<path d="M748.553 342.818C740.569 342.757 732.642 344.158 725.163 346.95C725.06 346.948 724.958 346.938 724.856 346.938C720.288 346.938 715.912 349.773 711.867 354.954C708.251 358.338 705.863 362.253 705.091 366.467C694.563 389.189 687.562 429.515 687.562 475.484C687.562 546.477 704.259 604.028 724.856 604.028C726.846 604.009 728.802 603.497 730.547 602.54C736.417 604.128 742.472 604.923 748.553 604.903C772.714 604.903 792.304 592.979 792.304 578.274V369.45C792.304 354.743 772.714 342.818 748.553 342.818Z" fill="white" stroke="#2861A4" stroke-width="1.19242" stroke-linecap="round" stroke-linejoin="round"/>
<path d="M661.794 508.467C661.794 509.335 661.449 510.168 660.834 510.782C660.22 511.396 659.387 511.741 658.518 511.741V511.741C657.651 511.738 656.821 511.392 656.209 510.778C655.597 510.165 655.253 509.333 655.254 508.467V427.18C655.256 426.315 655.6 425.487 656.212 424.876C656.824 424.264 657.653 423.92 658.518 423.918V423.918C659.385 423.917 660.217 424.261 660.831 424.872C661.445 425.484 661.791 426.314 661.794 427.18V508.467Z" fill="#A5C5E8"/>
<path d="M638.173 508.467C638.173 509.335 637.828 510.168 637.214 510.782C636.6 511.396 635.767 511.741 634.898 511.741V511.741C634.031 511.738 633.2 511.392 632.588 510.778C631.976 510.165 631.632 509.334 631.633 508.467V427.18C631.635 426.315 631.98 425.487 632.591 424.876C633.203 424.264 634.032 423.92 634.898 423.918V423.918C635.765 423.918 636.596 424.261 637.211 424.872C637.825 425.484 638.171 426.314 638.173 427.18V508.467Z" fill="#A5C5E8"/>
<path d="M811.876 475.484C811.876 546.477 795.179 604.028 774.582 604.028C753.985 604.028 737.289 546.477 737.289 475.484C737.289 404.489 753.985 346.938 774.582 346.938C795.179 346.938 811.876 404.489 811.876 475.484Z" fill="#5786C5" stroke="#2861A4" stroke-width="1.19242" stroke-miterlimit="10"/>
<path d="M765.895 495.854C765.895 497.171 765.371 498.435 764.438 499.367C763.505 500.298 762.241 500.822 760.922 500.822V500.822C760.269 500.822 759.622 500.693 759.019 500.444C758.416 500.194 757.867 499.828 757.406 499.367C756.944 498.905 756.578 498.358 756.328 497.755C756.078 497.152 755.949 496.506 755.949 495.854V452.382C755.949 451.73 756.078 451.084 756.328 450.481C756.578 449.878 756.944 449.331 757.406 448.869C757.867 448.408 758.416 448.042 759.019 447.792C759.622 447.543 760.269 447.414 760.922 447.414C762.241 447.414 763.506 447.938 764.438 448.869C765.371 449.801 765.895 451.065 765.895 452.382V495.854Z" fill="#204283"/>
<path d="M793.867 479.089C793.867 480.406 793.343 481.67 792.411 482.601C791.478 483.533 790.213 484.057 788.894 484.057V484.057C787.576 484.057 786.311 483.533 785.379 482.601C784.446 481.67 783.922 480.406 783.922 479.089V435.617C783.922 434.299 784.446 433.035 785.379 432.104C786.311 431.172 787.576 430.649 788.894 430.648V430.648C790.213 430.648 791.478 431.172 792.411 432.104C793.343 433.035 793.867 434.299 793.867 435.617V479.089Z" fill="#204283"/>
<path d="M689.906 966.129L686.02 988.641L664.574 992.057L669.393 970.01" fill="white"/>
<path d="M689.906 966.129L686.02 988.641L664.574 992.057L669.393 970.01" stroke="#2861A4" stroke-width="1.19242" stroke-linecap="round" stroke-linejoin="round"/>
<path d="M592.023 651.422C592.023 651.422 559.689 656.267 562.276 687.604C563.153 698.229 581.353 790.013 581.353 790.013L666.235 781.94C666.235 781.94 643.437 664.99 628.887 655.298C614.336 645.606 592.023 651.422 592.023 651.422Z" fill="#204283"/>
<path d="M581.352 790.013C581.352 790.013 585.449 815.945 594.609 840.41C608.411 877.272 620.236 895.588 616.92 922.913C611.954 963.846 596.356 986.931 596.356 986.931L632.253 992.675C632.253 992.675 654.63 917.532 651.315 906.767C645.496 856.37 640.126 778.422 640.126 778.422L581.352 790.013Z" fill="#204283"/>
<path d="M660.412 769.176C660.412 769.176 703.246 831.617 705.187 875.715C706.768 911.657 692.547 976.372 692.547 976.372L662.563 975.427C662.563 975.427 673.279 893.103 666.648 873.231C647.248 838.341 618.164 795.81 618.164 795.81L660.412 769.176Z" fill="#204283"/>
<path d="M583.291 664.747C583.291 664.747 605.117 658.204 613.363 680.496C621.608 702.787 614.317 718.462 601.064 720.853C573.409 725.842 553.704 668.14 583.291 664.747Z" fill="#A5C5E8"/>
<path d="M636.405 684.387C637.147 686.7 627.432 692.61 627.432 692.61C625.926 688.7 624.106 684.919 621.988 681.304C620.257 678.467 618.285 675.785 616.094 673.287C612.396 669.834 607.545 664.988 602.112 662.588C600.139 661.674 598.086 660.944 595.978 660.406C591.635 659.295 591.357 654.903 595.783 654.146C597.973 653.483 600.256 653.18 602.543 653.248C604.855 653.316 607.151 653.662 609.38 654.278C611.718 654.752 613.993 655.493 616.161 656.487C618.288 657.486 620.322 658.672 622.239 660.03C624.319 661.305 632.255 671.448 636.405 684.387Z" fill="#A5C5E8"/>
<path d="M592.819 612.472L589.514 633.816L574.546 620.087L569.23 609.485L575.21 603.842C575.21 603.842 597.801 585.586 601.457 581.437C605.111 577.288 617.067 600.497 606.769 610.123" fill="#204283"/>
<path d="M587.012 630.098L588.872 656.265C588.872 656.265 598.208 660.99 603.544 660.263C606.698 659.846 609.573 658.237 611.577 655.768L602.936 630.26L587.012 630.098Z" fill="white" stroke="#2861A4" stroke-width="1.19242" stroke-linecap="round" stroke-linejoin="round"/>
<path d="M604.749 605.156L588.742 611.471C588.742 611.471 590.41 618.751 590.063 619.596C590.06 619.597 585.489 622.356 585.486 622.358C583.264 623.898 583.049 627.428 585.006 630.249C586.962 633.067 590.347 634.104 592.569 632.564C593.075 632.207 593.49 631.738 593.782 631.192C598.387 635.85 601.701 637.98 607.789 637.98C619.334 637.98 604.749 605.156 604.749 605.156Z" fill="white" stroke="#2861A4" stroke-width="0.794946" stroke-linecap="round" stroke-linejoin="round"/>
<path d="M647.316 577.832H638.101C639.173 598.571 628.305 617.738 615.844 632.876L632.185 646.445C647.904 613.237 647.316 577.832 647.316 577.832Z" fill="white" stroke="#2861A4" stroke-width="1.19242" stroke-linecap="round" stroke-linejoin="round"/>
<path d="M580.296 665.521C578.111 668.101 576.218 670.913 574.649 673.906C571.65 679.544 571.65 687.314 576.502 690.221C592.022 700.884 606.573 683.47 615.959 672.147C617.899 669.792 619.709 667.416 621.411 664.906C623.113 662.399 624.707 659.948 626.2 657.337C627.3 655.533 628.337 653.977 629.321 652.139C630.334 650.254 631.282 648.352 632.184 646.444L615.843 632.875C615.615 633.149 585.232 660.145 580.296 665.521Z" fill="#A5C5E8" stroke="#2861A4" stroke-width="1.19242" stroke-linecap="round" stroke-linejoin="round"/>
<path d="M618.516 622.467L609.57 633.207L633.739 653.302L642.684 642.562L618.516 622.467Z" fill="#A5C5E8" stroke="#2861A4" stroke-width="1.19242" stroke-linecap="round" stroke-linejoin="round"/>
<path d="M657.26 759.637C657.26 759.637 605.443 773.941 577.594 770.509L579.627 795.398C579.627 795.398 633.441 782.178 658.633 769.016C659.079 768.783 658.655 767.602 658.655 767.602L657.26 759.637Z" fill="white" stroke="#2861A4" stroke-width="1.19242" stroke-linecap="round" stroke-linejoin="round"/>
<path d="M681.278 1004.85L679.337 1002.42L660.197 1001.14L658.562 1006.38C658.562 1006.38 714.097 1012.68 715.068 1008.56C715.378 1007.25 715.686 1006.48 715.584 1005.81L681.278 1004.85Z" fill="#A5C5E8" stroke="#2861A4" stroke-width="1.19242" stroke-linecap="round" stroke-linejoin="round"/>
<path d="M681.28 1004.85L715.586 1005.81C715.371 1004.4 717.779 1002.88 709.856 998.265C705.558 995.761 696.485 995.618 693.244 993.177C689.854 990.587 686.999 987.364 684.837 983.688C684.837 983.688 677.48 992.653 673.357 990.957C669.236 989.259 664.385 987.726 664.385 987.726L660.199 1001.14L679.339 1002.43L681.28 1004.85Z" fill="#A5C5E8" stroke="#2861A4" stroke-width="1.19242" stroke-linecap="round" stroke-linejoin="round"/>
<path d="M614.188 1019.15L612.343 1016.66L593.268 1014.63L591.43 1019.8C591.43 1019.8 646.678 1028.26 647.807 1024.18C648.169 1022.87 648.507 1022.11 648.431 1021.45L614.188 1019.15Z" fill="#A5C5E8" stroke="#2861A4" stroke-width="1.19242" stroke-linecap="round" stroke-linejoin="round"/>
<path d="M614.19 1019.15L648.433 1021.45C648.272 1020.03 650.738 1018.6 643.001 1013.68C638.803 1011.01 629.741 1010.52 626.599 1007.95C623.312 1005.23 620.584 1001.9 618.566 998.145C618.566 998.145 610.867 1006.82 606.813 1004.96C602.76 1003.11 597.973 1001.39 597.973 1001.39L593.27 1014.63L612.344 1016.66L614.19 1019.15Z" fill="#A5C5E8" stroke="#2861A4" stroke-width="1.19242" stroke-linecap="round" stroke-linejoin="round"/>
<path d="M648.711 582.003L637.421 581.501C636.953 581.197 636.526 580.834 636.15 580.422C635.576 579.776 636.87 577.548 636.87 577.548C636.87 577.548 632.866 570.896 632.064 565.287C631.262 559.678 626.984 554.07 629.657 554.07C632.332 554.07 632.332 558.878 633.669 558.343C634.337 558.077 634.676 553.686 634.04 549.378C633.406 545.072 631.797 540.85 633.669 541.251C637.411 542.052 639.075 555.846 639.075 555.846C639.075 555.846 639.471 551.424 639.578 546.791C639.696 541.82 639.599 536.615 641.954 536.712C643.988 536.795 643.828 541.364 644.253 545.931C644.563 548.936 645.044 551.921 645.696 554.872C645.696 554.872 647.109 539.873 648.711 541.475C650.316 543.076 648.761 556.4 649.72 556.421C650.676 556.441 652.112 547.127 653.449 547.928C654.786 548.728 652.914 564.751 652.914 564.751C652.914 564.751 653.173 574.186 649.431 578.457C649.431 578.457 650.965 581.38 648.711 582.003Z" fill="#204283"/>
<path d="M633.747 706.527C634.937 709.621 634.864 712.528 633.582 713.021C632.301 713.513 630.296 711.404 629.104 708.31C627.914 705.214 627.987 702.306 629.271 701.813C630.55 701.322 632.554 703.431 633.747 706.527Z" fill="white"/>
<path d="M644.313 700.113C645.502 703.207 645.43 706.114 644.148 706.607C642.867 707.099 640.862 704.99 639.67 701.896C638.481 698.8 638.554 695.892 639.837 695.399C641.116 694.908 643.12 697.017 644.313 700.113Z" fill="white"/>
<path d="M576.728 767.66H597.447C599.096 767.66 600.677 768.314 601.843 769.479C603.009 770.644 603.664 772.224 603.664 773.871V815.685C603.664 817.332 603.009 818.912 601.843 820.077C600.678 821.241 599.097 821.895 597.448 821.895H576.727C575.079 821.895 573.498 821.241 572.332 820.077C571.167 818.912 570.512 817.332 570.512 815.685V773.871C570.512 772.224 571.167 770.644 572.332 769.479C573.498 768.314 575.079 767.66 576.728 767.66Z" fill="#DCE8F6" stroke="#2861A4" stroke-width="1.19242" stroke-linecap="round" stroke-linejoin="round"/>
<path d="M1448.42 857.779C1448.28 855.906 1448.13 854.142 1448.01 852.474C1447.88 850.805 1447.86 849.238 1447.78 847.792C1447.72 846.347 1447.64 845.013 1447.65 843.81C1447.63 842.229 1447.61 840.901 1447.61 839.785C1450.36 837.08 1470.13 816.121 1453.88 786.34C1453.88 786.34 1423.86 808.049 1447.07 839.773C1446.9 840.868 1446.71 842.192 1446.53 843.751C1446.22 846.159 1446 849.096 1445.78 852.476C1445.7 854.162 1445.63 855.961 1445.55 857.855C1445.44 859.758 1445.73 861.742 1445.81 863.821C1445.93 865.44 1446.02 867.131 1446.15 868.856C1445.03 867.394 1443.57 865.473 1442.09 863.537C1441.35 862.567 1440.61 861.588 1439.91 860.686C1439.64 860.357 1439.38 860.037 1439.12 859.724C1443.62 818.461 1413.71 812.638 1413.71 812.638C1414.45 856.147 1432.08 859.919 1437.52 860.043C1437.92 860.533 1438.34 861.048 1438.79 861.597C1439.49 862.502 1440.23 863.469 1440.96 864.43C1442.44 866.361 1443.9 868.291 1445.01 869.743C1445.17 869.912 1445.24 870.128 1445.42 870.252C1445.59 870.386 1445.75 870.507 1445.9 870.629C1446.07 870.749 1446.18 870.834 1446.31 870.939C1446.53 872.968 1446.76 875.046 1446.99 877.19C1447.12 878.375 1447.23 879.577 1447.4 880.788C1447.58 881.992 1447.78 883.214 1447.97 884.449C1448.36 886.919 1448.76 889.444 1449.17 892.008C1449.67 894.59 1450.15 897.125 1450.73 899.748C1451.01 900.989 1451.31 902.243 1451.59 903.493C1451.43 903.162 1451.25 902.84 1451.04 902.528C1450.69 901.942 1450.34 901.35 1449.97 900.752C1449.26 899.566 1448.54 898.369 1447.87 897.253C1447.14 896.17 1446.45 895.162 1445.86 894.292C1445.74 894.081 1445.6 893.878 1445.44 893.684C1445.26 893.515 1445.09 893.366 1444.93 893.212C1444.78 893.078 1444.66 892.989 1444.52 892.875C1443.64 886.463 1438.23 861.15 1407.01 855.424C1407.01 855.424 1405.01 892.341 1444.21 894.329C1444.23 894.395 1444.26 894.454 1444.28 894.525C1444.4 894.737 1444.54 894.939 1444.69 895.131C1445.27 895.982 1445.94 896.973 1446.66 898.032C1447.32 899.133 1448.03 900.304 1448.74 901.49C1449.09 902.075 1449.44 902.661 1449.79 903.241C1450.14 903.8 1450.45 904.379 1450.73 904.974C1451.3 906.13 1451.83 907.205 1452.29 908.121C1452.38 908.351 1452.49 908.57 1452.63 908.775C1452.72 908.888 1452.81 908.989 1452.9 909.099C1454.03 913.901 1455.19 918.74 1456.04 923.618C1456.58 926.297 1456.9 929.001 1457.26 931.68C1457.44 933.024 1457.5 934.379 1457.62 935.713C1457.72 937.058 1457.87 938.397 1457.86 939.733C1457.87 940.037 1457.87 940.329 1457.88 940.636C1457.79 940.454 1457.7 940.271 1457.59 940.086C1457.16 939.242 1456.69 938.421 1456.17 937.627C1455.68 936.764 1455.03 935.97 1454.44 935.11C1453.8 934.305 1453.14 933.474 1452.41 932.701C1451.71 932.029 1451.05 931.297 1450.29 930.689C1450.48 930.626 1450.65 930.587 1450.84 930.528C1450.84 930.528 1440.64 900.044 1407.6 905.731C1407.6 905.731 1415.37 940.596 1448.63 931.179C1448.82 931.331 1449 931.472 1449.18 931.623C1449.94 932.266 1450.67 932.955 1451.36 933.686C1452.04 934.419 1452.67 935.215 1453.3 935.983C1453.86 936.804 1454.48 937.565 1454.95 938.395C1455.46 939.194 1455.92 939.986 1456.32 940.76C1456.75 941.524 1457.08 942.274 1457.41 942.961C1457.59 943.3 1457.66 943.666 1457.85 943.962C1457.87 944.005 1457.9 944.05 1457.92 944.093C1457.93 945.297 1457.92 946.493 1457.84 947.683C1457.78 948.991 1457.74 950.291 1457.68 951.583C1457.57 952.876 1457.41 954.159 1457.28 955.424C1457.16 956.696 1457.02 957.95 1456.89 959.198C1456.7 960.442 1456.5 961.67 1456.3 962.882C1455.89 965.313 1455.56 967.696 1455 969.978C1454.49 972.268 1454 974.497 1453.53 976.662C1453.39 977.166 1453.26 977.662 1453.12 978.159C1453 977.675 1452.87 977.187 1452.71 976.705C1452.08 974.756 1451.18 972.905 1450.03 971.21C1449.91 971.054 1449.85 970.842 1449.69 970.724C1449.54 970.595 1449.39 970.486 1449.25 970.379C1449.06 970.24 1448.9 970.142 1448.74 970.035C1448.44 966.653 1445.34 941.88 1417.92 939.062C1417.92 939.062 1416.16 971.528 1448.14 970.436C1448.21 970.625 1448.27 970.815 1448.35 971.046C1448.41 971.203 1448.47 971.377 1448.53 971.554C1448.59 971.724 1448.75 971.842 1448.84 972.016C1449.91 973.599 1450.76 975.326 1451.34 977.145C1451.66 978.108 1451.89 979.099 1452.02 980.104C1452.1 980.562 1452.14 981.025 1452.16 981.489C1452.17 981.558 1452.17 981.616 1452.17 981.682C1452.06 982.071 1451.96 982.459 1451.86 982.841C1451.58 983.825 1451.32 984.8 1451.05 985.75C1450.78 986.685 1450.46 987.592 1450.25 988.508C1449.79 990.33 1449.36 992.054 1448.96 993.679C1448.19 996.946 1447.35 999.742 1446.68 1002.06C1445.34 1006.69 1444.63 1009.37 1444.63 1009.37C1444.63 1009.37 1445.76 1006.86 1447.69 1002.42C1448.65 1000.19 1449.84 997.506 1451.01 994.339C1451.44 993.259 1451.88 992.111 1452.34 990.931C1452.44 990.881 1452.53 990.84 1452.65 990.782C1452.81 990.704 1452.98 990.618 1453.17 990.526C1453.35 990.448 1453.46 990.249 1453.63 990.12C1453.96 989.797 1454.31 989.503 1454.68 989.24C1455.08 988.967 1455.52 988.677 1455.96 988.379C1456.41 988.08 1456.84 987.746 1457.33 987.455C1457.83 987.213 1458.34 986.95 1458.84 986.689C1459.33 986.41 1459.85 986.173 1460.38 985.978C1460.9 985.774 1461.42 985.583 1461.91 985.401C1462.39 985.222 1462.88 985.076 1463.39 984.963C1463.86 984.851 1464.3 984.694 1464.71 984.635C1464.92 984.619 1465.12 984.584 1465.32 984.531C1465.41 984.481 1465.49 984.444 1465.59 984.4C1471.24 985.899 1497.39 991.081 1514.74 963.832C1514.74 963.832 1481.59 948.28 1464.93 983.131C1464.77 983.156 1464.61 983.209 1464.44 983.223C1463.99 983.292 1463.53 983.449 1463.02 983.567C1462.49 983.689 1461.97 983.844 1461.46 984.031C1460.93 984.227 1460.38 984.433 1459.83 984.647C1459.27 984.859 1458.73 985.109 1458.2 985.397C1457.66 985.669 1457.13 985.945 1456.61 986.219C1456.09 986.516 1455.63 986.865 1455.16 987.175C1454.69 987.492 1454.24 987.8 1453.81 988.095C1453.61 988.221 1453.42 988.369 1453.25 988.534C1453.79 986.985 1454.14 985.307 1454.63 983.608C1455.18 981.6 1455.74 979.514 1456.33 977.349C1456.81 975.152 1457.31 972.889 1457.82 970.565C1458.39 968.244 1458.74 965.81 1459.15 963.332C1459.34 962.098 1459.55 960.844 1459.75 959.582C1459.82 958.929 1459.89 958.262 1459.96 957.601C1460.04 957.573 1460.1 957.542 1460.18 957.516C1460.32 957.455 1460.37 957.301 1460.49 957.213C1461.34 956.372 1462.46 955.252 1463.58 954.132C1464.7 953.011 1465.82 951.888 1466.66 951.041C1466.73 950.96 1466.81 950.906 1466.87 950.838C1474.06 949.796 1498.31 944.059 1504.11 913.716C1504.11 913.716 1467.04 911.438 1464.88 950.79C1464.17 951.497 1463.37 952.31 1462.56 953.109C1461.73 953.942 1460.89 954.773 1460.17 955.492C1460.3 954.27 1460.45 953.042 1460.55 951.789C1460.61 950.463 1460.66 949.125 1460.72 947.786C1460.91 945.097 1460.78 942.376 1460.74 939.62C1460.75 938.25 1460.59 936.879 1460.5 935.497C1460.37 934.123 1460.31 932.728 1460.13 931.349C1459.85 929.302 1459.57 927.243 1459.23 925.196C1459.27 924.971 1459.3 924.745 1459.31 924.517C1459.46 923.23 1459.52 921.728 1459.81 920.114C1460.07 918.504 1460.3 916.784 1460.65 915.072C1461.27 911.65 1462.04 908.247 1462.63 905.694C1462.71 905.394 1462.78 905.089 1462.83 904.781C1462.84 904.616 1462.85 904.456 1462.86 904.297C1466.45 902.512 1492.76 888.203 1481.19 856.011C1481.19 856.011 1444.76 878.441 1461.83 903.57C1461.82 903.601 1461.81 903.631 1461.79 903.66C1461.68 903.909 1461.56 904.17 1461.44 904.451C1461.32 904.731 1461.32 905.054 1461.22 905.371C1460.62 907.935 1459.85 911.353 1459.23 914.811C1458.88 916.531 1458.64 918.281 1458.38 919.912C1458.37 920.03 1458.36 920.145 1458.34 920.261C1457.45 915.758 1456.38 911.335 1455.36 906.973C1454.72 904.34 1454.14 901.729 1453.56 899.167C1452.98 896.603 1452.49 893.968 1452 891.488C1451.6 888.961 1451.21 886.463 1450.82 884.024C1450.63 882.806 1450.44 881.599 1450.25 880.406C1450.08 879.212 1449.99 878.025 1449.85 876.857C1449.63 874.759 1449.41 872.729 1449.2 870.74C1449.27 870.166 1449.38 869.597 1449.53 869.037C1449.69 868.304 1449.89 867.581 1450.12 866.87C1450.34 866.148 1450.6 865.439 1450.89 864.746C1451.15 864.054 1451.49 863.405 1451.78 862.759C1452.36 861.604 1453.02 860.487 1453.74 859.415C1453.88 859.169 1454.08 858.985 1454.19 858.746C1454.3 858.505 1454.41 858.271 1454.5 858.06C1454.51 858.045 1454.52 858.035 1454.52 858.017C1460.25 856.242 1478.61 848.676 1473.73 825.926C1473.73 825.926 1447.42 832.103 1452.81 858.192C1452.73 858.336 1452.64 858.474 1452.54 858.604C1451.79 859.729 1451.1 860.9 1450.49 862.111C1450.19 862.794 1449.83 863.467 1449.56 864.201C1449.29 864.839 1449.06 865.494 1448.85 866.162C1448.8 865.314 1448.76 864.479 1448.7 863.659C1448.54 861.608 1448.53 859.646 1448.42 857.779Z" fill="#5786C5"/>
<path d="M414.45 722.77C414.45 723.657 414.187 724.525 413.693 725.264C413.2 726.002 412.498 726.577 411.677 726.917C410.856 727.257 409.953 727.346 409.081 727.172C408.21 726.999 407.409 726.572 406.781 725.944C406.152 725.316 405.725 724.516 405.551 723.646C405.378 722.775 405.467 721.872 405.807 721.052C406.147 720.232 406.723 719.531 407.462 719.038C408.201 718.544 409.069 718.281 409.958 718.281C411.149 718.281 412.292 718.754 413.134 719.596C413.977 720.438 414.45 721.579 414.45 722.77V722.77Z" fill="#A5C5E8"/>
<path d="M440.005 722.77C440.005 723.657 439.742 724.525 439.248 725.264C438.754 726.002 438.053 726.577 437.232 726.917C436.411 727.257 435.507 727.346 434.636 727.172C433.764 726.999 432.964 726.572 432.335 725.944C431.707 725.316 431.279 724.516 431.106 723.646C430.933 722.775 431.021 721.872 431.362 721.052C431.702 720.232 432.278 719.531 433.016 719.038C433.755 718.544 434.624 718.281 435.513 718.281C436.704 718.281 437.847 718.754 438.689 719.596C439.532 720.438 440.005 721.579 440.005 722.77Z" fill="#A5C5E8"/>
<path d="M465.568 722.77C465.568 723.658 465.304 724.526 464.81 725.264C464.317 726.002 463.615 726.577 462.794 726.917C461.973 727.257 461.069 727.346 460.198 727.172C459.326 726.999 458.525 726.571 457.897 725.943C457.269 725.315 456.841 724.515 456.668 723.644C456.495 722.773 456.584 721.871 456.925 721.05C457.265 720.23 457.841 719.529 458.581 719.037C459.32 718.544 460.189 718.281 461.077 718.281C461.667 718.281 462.251 718.398 462.796 718.623C463.341 718.849 463.836 719.179 464.253 719.596C464.67 720.013 465.001 720.508 465.226 721.052C465.452 721.597 465.568 722.18 465.568 722.77V722.77Z" fill="#A5C5E8"/>
<path d="M491.13 722.77C491.13 723.657 490.866 724.525 490.373 725.263C489.879 726.002 489.177 726.577 488.356 726.917C487.536 727.256 486.632 727.345 485.761 727.172C484.889 726.999 484.089 726.571 483.46 725.944C482.832 725.316 482.404 724.516 482.231 723.645C482.058 722.775 482.146 721.872 482.487 721.052C482.827 720.232 483.402 719.531 484.141 719.038C484.88 718.544 485.749 718.281 486.637 718.281C487.227 718.281 487.812 718.397 488.357 718.623C488.902 718.848 489.397 719.179 489.814 719.595C490.231 720.012 490.562 720.507 490.788 721.052C491.014 721.596 491.13 722.18 491.13 722.77V722.77Z" fill="#A5C5E8"/>
<path d="M516.688 722.77C516.688 723.657 516.425 724.525 515.931 725.263C515.438 726.002 514.736 726.577 513.915 726.917C513.094 727.256 512.191 727.345 511.319 727.172C510.448 726.999 509.647 726.571 509.019 725.944C508.391 725.316 507.963 724.516 507.789 723.645C507.616 722.775 507.705 721.872 508.045 721.052C508.385 720.232 508.961 719.531 509.7 719.037C510.439 718.544 511.308 718.281 512.196 718.281C513.388 718.281 514.53 718.754 515.372 719.596C516.215 720.438 516.688 721.579 516.688 722.77V722.77Z" fill="#A5C5E8"/>
<path d="M542.251 722.77C542.251 723.658 541.988 724.526 541.494 725.264C541 726.002 540.298 726.577 539.477 726.917C538.656 727.257 537.753 727.346 536.881 727.172C536.01 726.999 535.209 726.571 534.581 725.943C533.952 725.315 533.525 724.515 533.352 723.644C533.179 722.773 533.268 721.871 533.608 721.05C533.949 720.23 534.525 719.529 535.264 719.037C536.003 718.544 536.872 718.281 537.761 718.281C538.952 718.282 540.094 718.755 540.936 719.597C541.778 720.438 542.251 721.58 542.251 722.77V722.77Z" fill="#A5C5E8"/>
<path d="M414.45 750.701C414.451 751.589 414.188 752.457 413.694 753.196C413.201 753.934 412.499 754.51 411.678 754.85C410.857 755.19 409.954 755.279 409.082 755.106C408.211 754.933 407.41 754.506 406.781 753.878C406.153 753.251 405.725 752.451 405.551 751.58C405.378 750.709 405.467 749.806 405.807 748.986C406.147 748.166 406.723 747.465 407.462 746.971C408.2 746.478 409.069 746.215 409.958 746.215C411.149 746.216 412.291 746.689 413.133 747.53C413.975 748.371 414.449 749.512 414.45 750.701V750.701Z" fill="#A5C5E8"/>
<path d="M440.009 750.701C440.009 751.589 439.746 752.457 439.253 753.196C438.759 753.934 438.058 754.51 437.237 754.85C436.416 755.19 435.513 755.279 434.641 755.106C433.769 754.933 432.969 754.506 432.34 753.878C431.711 753.251 431.283 752.451 431.11 751.58C430.936 750.709 431.025 749.806 431.365 748.986C431.705 748.166 432.281 747.465 433.02 746.971C433.759 746.478 434.628 746.215 435.517 746.215C436.707 746.216 437.849 746.688 438.692 747.53C439.534 748.371 440.008 749.512 440.009 750.701V750.701Z" fill="#A5C5E8"/>
<path d="M465.568 750.701C465.568 751.589 465.305 752.457 464.811 753.196C464.318 753.935 463.616 754.51 462.795 754.85C461.974 755.19 461.07 755.279 460.199 755.106C459.327 754.933 458.526 754.505 457.898 753.877C457.269 753.25 456.841 752.449 456.668 751.579C456.495 750.708 456.584 749.805 456.925 748.985C457.265 748.164 457.841 747.463 458.58 746.97C459.32 746.477 460.189 746.214 461.077 746.215C462.268 746.216 463.41 746.689 464.251 747.53C465.093 748.371 465.567 749.512 465.568 750.701Z" fill="#A5C5E8"/>
<path d="M491.13 750.701C491.13 751.589 490.867 752.457 490.374 753.196C489.88 753.934 489.179 754.51 488.358 754.85C487.537 755.19 486.633 755.279 485.762 755.106C484.89 754.933 484.09 754.506 483.461 753.878C482.833 753.25 482.404 752.45 482.231 751.58C482.057 750.709 482.146 749.806 482.486 748.986C482.826 748.166 483.402 747.465 484.141 746.971C484.88 746.478 485.749 746.215 486.637 746.215C487.828 746.215 488.971 746.688 489.813 747.529C490.655 748.37 491.129 749.511 491.13 750.701V750.701Z" fill="#A5C5E8"/>
<path d="M516.688 750.701C516.689 751.589 516.426 752.457 515.932 753.196C515.439 753.934 514.737 754.51 513.916 754.85C513.095 755.19 512.192 755.279 511.32 755.106C510.449 754.933 509.648 754.506 509.02 753.878C508.391 753.25 507.963 752.45 507.79 751.58C507.616 750.709 507.705 749.806 508.045 748.986C508.385 748.166 508.961 747.465 509.7 746.971C510.439 746.478 511.307 746.215 512.196 746.215C513.387 746.216 514.529 746.689 515.371 747.53C516.213 748.371 516.687 749.512 516.688 750.701V750.701Z" fill="#A5C5E8"/>
<path d="M542.247 750.701C542.248 751.589 541.984 752.457 541.491 753.196C540.997 753.934 540.296 754.51 539.475 754.85C538.654 755.19 537.75 755.279 536.878 755.106C536.007 754.933 535.206 754.505 534.577 753.877C533.949 753.249 533.521 752.449 533.348 751.578C533.175 750.707 533.264 749.805 533.604 748.984C533.945 748.164 534.521 747.463 535.26 746.97C535.999 746.477 536.868 746.214 537.757 746.215C538.948 746.216 540.089 746.689 540.931 747.53C541.773 748.372 542.246 749.512 542.247 750.701Z" fill="#A5C5E8"/>
<path d="M414.45 778.635C414.45 779.523 414.186 780.39 413.692 781.128C413.199 781.866 412.497 782.441 411.676 782.781C410.855 783.12 409.951 783.209 409.08 783.036C408.209 782.862 407.408 782.434 406.78 781.807C406.152 781.179 405.724 780.379 405.551 779.508C405.378 778.637 405.467 777.735 405.807 776.915C406.147 776.095 406.723 775.394 407.462 774.901C408.201 774.408 409.069 774.144 409.958 774.145C410.548 774.145 411.132 774.261 411.678 774.486C412.223 774.712 412.718 775.043 413.135 775.46C413.552 775.877 413.883 776.372 414.109 776.917C414.335 777.461 414.451 778.045 414.45 778.635V778.635Z" fill="#A5C5E8"/>
<path d="M440.009 778.635C440.009 779.523 439.745 780.39 439.251 781.128C438.757 781.866 438.055 782.441 437.234 782.781C436.413 783.12 435.51 783.209 434.639 783.036C433.767 782.862 432.967 782.434 432.339 781.807C431.711 781.179 431.283 780.379 431.11 779.508C430.936 778.637 431.026 777.735 431.366 776.915C431.706 776.095 432.282 775.394 433.021 774.901C433.759 774.408 434.628 774.144 435.517 774.145C436.107 774.145 436.691 774.261 437.236 774.486C437.781 774.712 438.277 775.043 438.694 775.46C439.111 775.877 439.442 776.372 439.668 776.917C439.893 777.461 440.009 778.045 440.009 778.635V778.635Z" fill="#A5C5E8"/>
<path d="M465.568 778.635C465.567 779.523 465.303 780.39 464.809 781.128C464.315 781.866 463.614 782.442 462.792 782.781C461.971 783.12 461.068 783.209 460.196 783.035C459.325 782.862 458.525 782.434 457.896 781.806C457.268 781.178 456.841 780.378 456.668 779.507C456.495 778.636 456.584 777.733 456.925 776.913C457.265 776.093 457.842 775.392 458.581 774.9C459.32 774.407 460.189 774.144 461.077 774.145C461.667 774.145 462.252 774.261 462.797 774.487C463.342 774.712 463.837 775.043 464.254 775.46C464.671 775.877 465.001 776.372 465.227 776.917C465.452 777.462 465.568 778.045 465.568 778.635V778.635Z" fill="#A5C5E8"/>
<path d="M491.13 778.635C491.129 779.523 490.866 780.39 490.372 781.128C489.878 781.866 489.176 782.441 488.355 782.78C487.534 783.12 486.631 783.209 485.76 783.035C484.888 782.862 484.088 782.434 483.46 781.806C482.832 781.178 482.404 780.379 482.231 779.508C482.058 778.637 482.147 777.735 482.487 776.915C482.827 776.095 483.403 775.394 484.141 774.901C484.88 774.408 485.749 774.144 486.637 774.145C487.227 774.144 487.812 774.26 488.357 774.486C488.902 774.712 489.398 775.042 489.815 775.459C490.232 775.876 490.563 776.371 490.789 776.916C491.014 777.461 491.13 778.045 491.13 778.635V778.635Z" fill="#A5C5E8"/>
<path d="M516.688 778.635C516.688 779.523 516.424 780.39 515.93 781.128C515.436 781.866 514.735 782.441 513.914 782.781C513.093 783.12 512.189 783.209 511.318 783.035C510.447 782.862 509.646 782.434 509.018 781.806C508.39 781.178 507.962 780.378 507.789 779.508C507.616 778.637 507.705 777.735 508.045 776.915C508.386 776.095 508.961 775.394 509.7 774.901C510.439 774.408 511.308 774.144 512.196 774.145C512.786 774.145 513.371 774.261 513.916 774.486C514.461 774.712 514.956 775.043 515.373 775.46C515.79 775.877 516.121 776.372 516.347 776.917C516.573 777.461 516.689 778.045 516.688 778.635V778.635Z" fill="#A5C5E8"/>
<path d="M542.251 778.635C542.251 779.523 541.987 780.39 541.493 781.128C540.999 781.866 540.297 782.442 539.476 782.781C538.655 783.12 537.751 783.209 536.88 783.035C536.008 782.862 535.208 782.434 534.58 781.806C533.952 781.178 533.524 780.378 533.352 779.507C533.179 778.636 533.268 777.733 533.609 776.913C533.949 776.093 534.525 775.392 535.264 774.9C536.004 774.407 536.872 774.144 537.761 774.145C538.351 774.145 538.935 774.261 539.48 774.487C540.025 774.713 540.52 775.044 540.937 775.461C541.354 775.877 541.685 776.372 541.91 776.917C542.135 777.462 542.251 778.045 542.251 778.635Z" fill="#A5C5E8"/>
<path d="M414.45 806.566C414.451 807.454 414.187 808.322 413.694 809.06C413.2 809.798 412.498 810.374 411.678 810.714C410.857 811.054 409.953 811.143 409.082 810.969C408.21 810.796 407.409 810.369 406.781 809.741C406.153 809.113 405.725 808.313 405.551 807.443C405.378 806.572 405.467 805.669 405.807 804.849C406.147 804.029 406.723 803.328 407.462 802.835C408.201 802.341 409.069 802.078 409.958 802.078C410.548 802.078 411.132 802.194 411.677 802.419C412.222 802.645 412.718 802.976 413.135 803.392C413.552 803.809 413.883 804.304 414.109 804.848C414.334 805.393 414.45 805.977 414.45 806.566Z" fill="#A5C5E8"/>
<path d="M440.005 806.566C440.005 807.454 439.742 808.322 439.248 809.06C438.755 809.798 438.053 810.374 437.232 810.714C436.411 811.054 435.508 811.143 434.636 810.969C433.765 810.796 432.964 810.369 432.336 809.741C431.707 809.113 431.279 808.313 431.106 807.443C430.932 806.572 431.021 805.669 431.362 804.849C431.702 804.029 432.277 803.328 433.016 802.835C433.755 802.341 434.624 802.078 435.513 802.078C436.103 802.078 436.687 802.194 437.232 802.419C437.777 802.645 438.272 802.975 438.689 803.392C439.107 803.809 439.438 804.304 439.663 804.848C439.889 805.393 440.005 805.977 440.005 806.566V806.566Z" fill="#A5C5E8"/>
<path d="M465.568 806.566C465.568 807.454 465.304 808.322 464.811 809.06C464.317 809.799 463.615 810.374 462.794 810.714C461.973 811.054 461.07 811.143 460.198 810.969C459.326 810.796 458.526 810.368 457.897 809.74C457.269 809.112 456.841 808.312 456.668 807.441C456.495 806.57 456.584 805.668 456.925 804.848C457.265 804.027 457.841 803.326 458.581 802.833C459.32 802.341 460.189 802.078 461.077 802.078C461.667 802.078 462.251 802.194 462.796 802.42C463.341 802.645 463.836 802.976 464.253 803.393C464.67 803.809 465.001 804.304 465.226 804.849C465.452 805.393 465.568 805.977 465.568 806.566V806.566Z" fill="#A5C5E8"/>
<path d="M491.13 806.566C491.13 807.454 490.867 808.322 490.373 809.06C489.879 809.798 489.178 810.374 488.357 810.713C487.536 811.053 486.633 811.142 485.761 810.969C484.89 810.796 484.089 810.369 483.461 809.741C482.832 809.113 482.404 808.313 482.231 807.443C482.058 806.572 482.146 805.669 482.486 804.849C482.827 804.029 483.402 803.328 484.141 802.835C484.88 802.341 485.749 802.078 486.637 802.078C487.227 802.078 487.812 802.194 488.357 802.419C488.902 802.644 489.397 802.975 489.815 803.392C490.232 803.809 490.563 804.303 490.788 804.848C491.014 805.393 491.13 805.976 491.13 806.566Z" fill="#A5C5E8"/>
<path d="M516.688 806.566C516.688 807.454 516.425 808.322 515.932 809.06C515.438 809.798 514.736 810.374 513.915 810.713C513.094 811.053 512.191 811.142 511.32 810.969C510.448 810.796 509.647 810.368 509.019 809.741C508.391 809.113 507.963 808.313 507.789 807.442C507.616 806.572 507.705 805.669 508.045 804.849C508.385 804.029 508.961 803.328 509.7 802.835C510.439 802.341 511.308 802.078 512.196 802.078C512.786 802.078 513.37 802.194 513.915 802.42C514.46 802.645 514.956 802.976 515.373 803.392C515.79 803.809 516.121 804.304 516.347 804.848C516.572 805.393 516.688 805.977 516.688 806.566V806.566Z" fill="#A5C5E8"/>
<path d="M542.251 806.566C542.251 807.454 541.988 808.322 541.494 809.06C541 809.799 540.299 810.374 539.478 810.714C538.657 811.054 537.753 811.142 536.881 810.969C536.01 810.796 535.209 810.368 534.581 809.74C533.953 809.112 533.525 808.312 533.352 807.441C533.179 806.57 533.268 805.668 533.608 804.848C533.949 804.027 534.525 803.326 535.264 802.833C536.003 802.341 536.872 802.078 537.761 802.078C538.952 802.078 540.094 802.551 540.936 803.393C541.778 804.235 542.251 805.376 542.251 806.566Z" fill="#A5C5E8"/>
<path d="M1076.45 484.553C1076.45 485.206 1076.26 485.845 1075.89 486.389C1075.53 486.932 1075.01 487.355 1074.41 487.606C1073.8 487.856 1073.14 487.921 1072.5 487.794C1071.86 487.666 1071.27 487.352 1070.8 486.89C1070.34 486.427 1070.03 485.839 1069.9 485.198C1069.77 484.557 1069.84 483.893 1070.09 483.289C1070.34 482.685 1070.76 482.169 1071.31 481.806C1071.85 481.444 1072.49 481.25 1073.14 481.25C1074.02 481.25 1074.86 481.598 1075.48 482.218C1076.1 482.837 1076.45 483.677 1076.45 484.553V484.553Z" fill="#5786C5"/>
<path d="M1095.26 484.553C1095.26 485.206 1095.06 485.845 1094.7 486.388C1094.34 486.932 1093.82 487.355 1093.22 487.605C1092.61 487.855 1091.95 487.921 1091.31 487.793C1090.66 487.666 1090.08 487.351 1089.61 486.889C1089.15 486.427 1088.84 485.838 1088.71 485.198C1088.58 484.557 1088.65 483.893 1088.9 483.289C1089.15 482.685 1089.57 482.17 1090.11 481.807C1090.66 481.444 1091.3 481.25 1091.95 481.25C1092.83 481.25 1093.67 481.598 1094.29 482.218C1094.91 482.837 1095.26 483.677 1095.26 484.553V484.553Z" fill="#5786C5"/>
<path d="M1114.07 484.553C1114.07 485.206 1113.87 485.845 1113.51 486.389C1113.15 486.932 1112.63 487.356 1112.03 487.606C1111.42 487.856 1110.76 487.922 1110.11 487.794C1109.47 487.667 1108.88 487.352 1108.42 486.89C1107.96 486.427 1107.64 485.839 1107.52 485.197C1107.39 484.556 1107.45 483.892 1107.71 483.288C1107.96 482.685 1108.38 482.169 1108.92 481.806C1109.47 481.443 1110.11 481.25 1110.76 481.25C1111.64 481.25 1112.48 481.598 1113.1 482.218C1113.72 482.837 1114.07 483.677 1114.07 484.553V484.553Z" fill="#5786C5"/>
<path d="M1132.88 484.553C1132.88 485.206 1132.69 485.845 1132.32 486.389C1131.96 486.932 1131.44 487.356 1130.84 487.606C1130.23 487.856 1129.57 487.921 1128.93 487.794C1128.29 487.666 1127.7 487.351 1127.23 486.889C1126.77 486.427 1126.46 485.838 1126.33 485.198C1126.2 484.557 1126.27 483.892 1126.52 483.289C1126.77 482.685 1127.19 482.169 1127.74 481.806C1128.28 481.443 1128.92 481.25 1129.57 481.25C1130.01 481.25 1130.44 481.335 1130.84 481.501C1131.24 481.667 1131.6 481.911 1131.91 482.217C1132.22 482.524 1132.46 482.888 1132.63 483.289C1132.79 483.69 1132.88 484.119 1132.88 484.553V484.553Z" fill="#5786C5"/>
<path d="M1151.69 484.553C1151.69 485.206 1151.5 485.845 1151.13 486.388C1150.77 486.932 1150.25 487.355 1149.65 487.605C1149.05 487.856 1148.38 487.921 1147.74 487.794C1147.1 487.666 1146.51 487.352 1146.05 486.89C1145.58 486.428 1145.27 485.84 1145.14 485.199C1145.01 484.558 1145.08 483.894 1145.33 483.29C1145.58 482.686 1146 482.17 1146.55 481.807C1147.09 481.444 1147.73 481.25 1148.38 481.25C1149.26 481.25 1150.1 481.598 1150.72 482.217C1151.34 482.837 1151.69 483.677 1151.69 484.553Z" fill="#5786C5"/>
<path d="M1170.5 484.553C1170.5 485.207 1170.31 485.846 1169.94 486.389C1169.58 486.933 1169.06 487.356 1168.46 487.607C1167.86 487.857 1167.19 487.922 1166.55 487.795C1165.91 487.667 1165.32 487.353 1164.86 486.89C1164.39 486.428 1164.08 485.839 1163.95 485.198C1163.82 484.557 1163.89 483.892 1164.14 483.289C1164.39 482.685 1164.81 482.169 1165.36 481.806C1165.9 481.443 1166.54 481.25 1167.2 481.25C1168.07 481.251 1168.91 481.599 1169.53 482.218C1170.15 482.838 1170.5 483.677 1170.5 484.553Z" fill="#5786C5"/>
<path d="M1076.45 505.11C1076.45 505.764 1076.26 506.403 1075.89 506.946C1075.53 507.49 1075.01 507.914 1074.41 508.164C1073.8 508.414 1073.14 508.48 1072.5 508.353C1071.86 508.225 1071.27 507.911 1070.8 507.449C1070.34 506.987 1070.03 506.398 1069.9 505.757C1069.77 505.116 1069.84 504.452 1070.09 503.848C1070.34 503.244 1070.76 502.728 1071.31 502.365C1071.85 502.002 1072.49 501.808 1073.14 501.809C1074.02 501.809 1074.86 502.157 1075.48 502.776C1076.1 503.395 1076.45 504.235 1076.45 505.11V505.11Z" fill="#5786C5"/>
<path d="M1095.26 505.11C1095.26 505.764 1095.06 506.403 1094.7 506.946C1094.34 507.489 1093.82 507.913 1093.22 508.163C1092.61 508.414 1091.95 508.479 1091.31 508.352C1090.67 508.225 1090.08 507.91 1089.61 507.448C1089.15 506.986 1088.84 506.398 1088.71 505.757C1088.58 505.116 1088.65 504.452 1088.9 503.848C1089.15 503.244 1089.57 502.728 1090.11 502.365C1090.66 502.002 1091.3 501.809 1091.95 501.809C1092.83 501.809 1093.67 502.157 1094.29 502.776C1094.91 503.395 1095.26 504.235 1095.26 505.11V505.11Z" fill="#5786C5"/>
<path d="M1114.07 505.11C1114.07 505.764 1113.87 506.403 1113.51 506.947C1113.15 507.49 1112.63 507.914 1112.03 508.165C1111.42 508.415 1110.76 508.48 1110.12 508.353C1109.47 508.226 1108.88 507.911 1108.42 507.449C1107.96 506.987 1107.64 506.398 1107.52 505.757C1107.39 505.115 1107.45 504.451 1107.71 503.847C1107.96 503.243 1108.38 502.727 1108.92 502.365C1109.47 502.002 1110.11 501.808 1110.76 501.809C1111.64 501.809 1112.48 502.157 1113.1 502.776C1113.72 503.395 1114.07 504.235 1114.07 505.11V505.11Z" fill="#5786C5"/>
<path d="M1132.88 505.11C1132.88 505.764 1132.69 506.403 1132.32 506.946C1131.96 507.49 1131.44 507.914 1130.84 508.164C1130.23 508.414 1129.57 508.48 1128.93 508.352C1128.29 508.225 1127.7 507.91 1127.23 507.448C1126.77 506.986 1126.46 506.398 1126.33 505.757C1126.2 505.116 1126.27 504.451 1126.52 503.848C1126.77 503.244 1127.19 502.728 1127.74 502.365C1128.28 502.002 1128.92 501.808 1129.57 501.809C1130.45 501.809 1131.29 502.157 1131.91 502.776C1132.53 503.395 1132.88 504.235 1132.88 505.11V505.11Z" fill="#5786C5"/>
<path d="M1151.69 505.11C1151.69 505.764 1151.5 506.403 1151.14 506.946C1150.77 507.49 1150.26 507.913 1149.65 508.164C1149.05 508.414 1148.38 508.48 1147.74 508.353C1147.1 508.225 1146.51 507.911 1146.05 507.449C1145.58 506.987 1145.27 506.399 1145.14 505.758C1145.01 505.117 1145.08 504.453 1145.33 503.849C1145.58 503.245 1146 502.729 1146.55 502.366C1147.09 502.003 1147.73 501.809 1148.38 501.809C1149.26 501.809 1150.1 502.157 1150.72 502.776C1151.34 503.395 1151.69 504.234 1151.69 505.11V505.11Z" fill="#5786C5"/>
<path d="M1170.5 505.11C1170.5 505.764 1170.31 506.403 1169.94 506.947C1169.58 507.491 1169.07 507.915 1168.46 508.165C1167.86 508.415 1167.19 508.481 1166.55 508.354C1165.91 508.226 1165.32 507.912 1164.86 507.449C1164.39 506.987 1164.08 506.398 1163.95 505.757C1163.82 505.116 1163.89 504.451 1164.14 503.848C1164.39 503.244 1164.81 502.728 1165.36 502.365C1165.9 502.002 1166.54 501.808 1167.2 501.809C1168.07 501.809 1168.91 502.158 1169.53 502.777C1170.15 503.396 1170.5 504.235 1170.5 505.11V505.11Z" fill="#5786C5"/>
<path d="M1076.45 525.667C1076.45 526.321 1076.25 526.959 1075.89 527.502C1075.52 528.046 1075.01 528.469 1074.4 528.719C1073.8 528.969 1073.13 529.034 1072.49 528.907C1071.85 528.779 1071.26 528.465 1070.8 528.003C1070.34 527.54 1070.02 526.952 1069.9 526.311C1069.77 525.67 1069.83 525.006 1070.08 524.402C1070.33 523.798 1070.76 523.283 1071.3 522.92C1071.85 522.557 1072.49 522.363 1073.14 522.363C1074.02 522.363 1074.86 522.712 1075.48 523.331C1076.1 523.951 1076.45 524.791 1076.45 525.667V525.667Z" fill="#5786C5"/>
<path d="M1095.26 525.667C1095.26 526.32 1095.06 526.959 1094.7 527.502C1094.34 528.045 1093.82 528.469 1093.22 528.719C1092.61 528.969 1091.95 529.034 1091.31 528.906C1090.66 528.779 1090.07 528.464 1089.61 528.002C1089.15 527.54 1088.84 526.951 1088.71 526.311C1088.58 525.67 1088.65 525.006 1088.9 524.402C1089.15 523.799 1089.57 523.283 1090.11 522.92C1090.66 522.557 1091.3 522.363 1091.95 522.363C1092.83 522.363 1093.67 522.712 1094.29 523.331C1094.91 523.951 1095.26 524.791 1095.26 525.667V525.667Z" fill="#5786C5"/>
<path d="M1114.07 525.667C1114.07 526.321 1113.87 526.96 1113.51 527.503C1113.15 528.046 1112.63 528.47 1112.03 528.72C1111.42 528.97 1110.76 529.035 1110.11 528.907C1109.47 528.78 1108.88 528.465 1108.42 528.003C1107.96 527.54 1107.64 526.951 1107.52 526.31C1107.39 525.669 1107.45 525.005 1107.71 524.401C1107.96 523.798 1108.38 523.282 1108.92 522.919C1109.47 522.556 1110.11 522.363 1110.76 522.363C1111.2 522.363 1111.63 522.449 1112.03 522.615C1112.43 522.781 1112.79 523.025 1113.1 523.331C1113.41 523.638 1113.65 524.002 1113.82 524.403C1113.98 524.804 1114.07 525.233 1114.07 525.667V525.667Z" fill="#5786C5"/>
<path d="M1132.88 525.667C1132.88 526.321 1132.68 526.959 1132.32 527.503C1131.96 528.046 1131.44 528.469 1130.84 528.719C1130.23 528.969 1129.57 529.034 1128.93 528.907C1128.29 528.779 1127.7 528.464 1127.23 528.002C1126.77 527.54 1126.46 526.951 1126.33 526.311C1126.2 525.67 1126.27 525.005 1126.52 524.402C1126.77 523.798 1127.19 523.282 1127.74 522.919C1128.28 522.557 1128.92 522.363 1129.57 522.363C1130.01 522.363 1130.44 522.449 1130.84 522.615C1131.24 522.781 1131.6 523.024 1131.91 523.331C1132.22 523.638 1132.46 524.002 1132.63 524.403C1132.79 524.804 1132.88 525.233 1132.88 525.667Z" fill="#5786C5"/>
<path d="M1151.69 525.667C1151.69 526.32 1151.5 526.959 1151.13 527.502C1150.77 528.046 1150.25 528.469 1149.65 528.719C1149.05 528.969 1148.38 529.034 1147.74 528.907C1147.1 528.78 1146.51 528.465 1146.05 528.003C1145.58 527.541 1145.27 526.952 1145.14 526.312C1145.01 525.671 1145.08 525.007 1145.33 524.403C1145.58 523.799 1146 523.283 1146.55 522.92C1147.09 522.557 1147.73 522.363 1148.38 522.363C1149.26 522.363 1150.1 522.711 1150.72 523.331C1151.34 523.951 1151.69 524.791 1151.69 525.667V525.667Z" fill="#5786C5"/>
<path d="M1170.5 525.667C1170.5 526.321 1170.31 526.96 1169.94 527.503C1169.58 528.047 1169.06 528.47 1168.46 528.72C1167.85 528.97 1167.19 529.036 1166.55 528.908C1165.91 528.781 1165.32 528.466 1164.85 528.003C1164.39 527.541 1164.08 526.952 1163.95 526.311C1163.82 525.67 1163.89 525.006 1164.14 524.402C1164.39 523.798 1164.81 523.282 1165.36 522.919C1165.9 522.556 1166.54 522.363 1167.2 522.363C1168.07 522.364 1168.91 522.712 1169.53 523.332C1170.15 523.951 1170.5 524.791 1170.5 525.667V525.667Z" fill="#5786C5"/>
<path d="M1076.45 546.221C1076.45 546.875 1076.25 547.513 1075.89 548.057C1075.52 548.6 1075.01 549.024 1074.4 549.274C1073.8 549.524 1073.13 549.589 1072.49 549.462C1071.85 549.334 1071.26 549.019 1070.8 548.557C1070.34 548.095 1070.02 547.507 1069.9 546.866C1069.77 546.225 1069.83 545.561 1070.08 544.957C1070.33 544.353 1070.76 543.837 1071.3 543.474C1071.85 543.111 1072.49 542.918 1073.14 542.918C1073.57 542.918 1074 543.003 1074.4 543.169C1074.81 543.335 1075.17 543.578 1075.48 543.885C1075.78 544.192 1076.03 544.556 1076.19 544.957C1076.36 545.358 1076.45 545.787 1076.45 546.221V546.221Z" fill="#5786C5"/>
<path d="M1095.26 546.221C1095.26 546.875 1095.06 547.513 1094.7 548.056C1094.34 548.6 1093.82 549.023 1093.22 549.273C1092.61 549.523 1091.95 549.589 1091.31 549.461C1090.66 549.334 1090.08 549.019 1089.61 548.557C1089.15 548.095 1088.84 547.506 1088.71 546.866C1088.58 546.225 1088.65 545.561 1088.9 544.957C1089.15 544.353 1089.57 543.837 1090.11 543.475C1090.66 543.112 1091.3 542.918 1091.95 542.918C1092.39 542.918 1092.82 543.003 1093.22 543.169C1093.62 543.335 1093.98 543.578 1094.29 543.885C1094.6 544.192 1094.84 544.556 1095.01 544.957C1095.17 545.358 1095.26 545.787 1095.26 546.221V546.221Z" fill="#5786C5"/>
<path d="M1114.07 546.221C1114.07 546.875 1113.87 547.514 1113.51 548.057C1113.15 548.601 1112.63 549.024 1112.03 549.274C1111.42 549.524 1110.76 549.59 1110.11 549.462C1109.47 549.335 1108.88 549.02 1108.42 548.558C1107.96 548.095 1107.64 547.506 1107.52 546.865C1107.39 546.224 1107.45 545.56 1107.71 544.956C1107.96 544.352 1108.38 543.837 1108.92 543.474C1109.47 543.111 1110.11 542.918 1110.76 542.918C1111.2 542.918 1111.63 543.003 1112.03 543.169C1112.43 543.335 1112.79 543.578 1113.1 543.885C1113.41 544.192 1113.65 544.556 1113.82 544.957C1113.98 545.358 1114.07 545.787 1114.07 546.221V546.221Z" fill="#5786C5"/>
<path d="M1132.88 546.221C1132.88 546.875 1132.68 547.513 1132.32 548.057C1131.96 548.6 1131.44 549.024 1130.84 549.274C1130.23 549.524 1129.57 549.589 1128.93 549.462C1128.29 549.334 1127.7 549.019 1127.23 548.557C1126.77 548.095 1126.46 547.506 1126.33 546.865C1126.2 546.224 1126.27 545.56 1126.52 544.957C1126.77 544.353 1127.19 543.837 1127.74 543.474C1128.28 543.111 1128.92 542.918 1129.57 542.918C1130.01 542.918 1130.44 543.003 1130.84 543.169C1131.24 543.335 1131.6 543.578 1131.91 543.885C1132.22 544.192 1132.46 544.556 1132.63 544.957C1132.79 545.358 1132.88 545.787 1132.88 546.221V546.221Z" fill="#5786C5"/>
<path d="M1151.69 546.221C1151.69 546.875 1151.5 547.513 1151.13 548.057C1150.77 548.6 1150.25 549.023 1149.65 549.273C1149.05 549.524 1148.38 549.589 1147.74 549.462C1147.1 549.334 1146.51 549.02 1146.05 548.558C1145.58 548.096 1145.27 547.507 1145.14 546.867C1145.01 546.226 1145.08 545.562 1145.33 544.958C1145.58 544.354 1146 543.838 1146.55 543.475C1147.09 543.112 1147.73 542.918 1148.38 542.918C1148.82 542.918 1149.25 543.003 1149.65 543.169C1150.05 543.335 1150.42 543.578 1150.72 543.885C1151.03 544.192 1151.27 544.556 1151.44 544.957C1151.61 545.358 1151.69 545.787 1151.69 546.221V546.221Z" fill="#5786C5"/>
<path d="M1170.5 546.221C1170.5 546.875 1170.31 547.514 1169.94 548.057C1169.58 548.601 1169.06 549.025 1168.46 549.275C1167.86 549.525 1167.19 549.59 1166.55 549.463C1165.91 549.335 1165.32 549.02 1164.86 548.558C1164.39 548.096 1164.08 547.507 1163.95 546.866C1163.82 546.225 1163.89 545.56 1164.14 544.957C1164.39 544.353 1164.81 543.837 1165.36 543.474C1165.9 543.111 1166.54 542.918 1167.2 542.918C1168.07 542.918 1168.91 543.266 1169.53 543.886C1170.15 544.505 1170.5 545.345 1170.5 546.221V546.221Z" fill="#5786C5"/>
<path d="M793.396 989.895C793.396 989.895 768.242 863.79 791.149 872.316C814.058 880.844 817.202 978.228 806.87 992.14" fill="#5786C5"/>
<path d="M793.396 989.895C793.396 989.895 768.242 863.79 791.149 872.316C814.058 880.844 817.202 978.228 806.87 992.14" stroke="#2861A4" stroke-width="1.19242" stroke-miterlimit="10"/>
<path d="M790.955 994.539C790.955 994.539 786.477 943.046 761.828 945.73C737.178 948.421 773.032 990.508 779.305 994.539" fill="#A5C5E8"/>
<path d="M790.955 994.539C790.955 994.539 786.477 943.046 761.828 945.73C737.178 948.421 773.032 990.508 779.305 994.539" stroke="#2861A4" stroke-width="1.19242" stroke-linecap="round" stroke-linejoin="round"/>
<path d="M762.277 924.688C762.277 924.688 755.556 944.837 773.482 941.256C791.411 937.672 786.2 936.999 786.2 936.999" fill="#A5C5E8"/>
<path d="M762.277 924.688C762.277 924.688 755.556 944.837 773.482 941.256C791.411 937.672 786.2 936.999 786.2 936.999" stroke="#2861A4" stroke-width="1.19242" stroke-miterlimit="10"/>
<path d="M796.339 994.088C796.339 994.088 790.511 917.073 781.997 913.939C773.481 910.806 759.141 917.522 762.276 924.685C765.416 931.849 786.48 994.538 786.48 994.538" fill="#DCE8F6"/>
<path d="M796.339 994.088C796.339 994.088 790.511 917.073 781.997 913.939C773.481 910.806 759.141 917.522 762.276 924.685C765.416 931.849 786.48 994.538 786.48 994.538" stroke="#2861A4" stroke-width="1.19242" stroke-linecap="round" stroke-linejoin="round"/>
<path d="M847.297 909.565C847.297 909.565 853.136 933.799 841.908 941.877C830.678 949.952 822.145 935.146 822.145 935.146L820.348 908.668" fill="#A5C5E8"/>
<path d="M847.297 909.565C847.297 909.565 853.136 933.799 841.908 941.877C830.678 949.952 822.145 935.146 822.145 935.146L820.348 908.668" stroke="#2861A4" stroke-width="1.19242" stroke-miterlimit="10"/>
<path d="M801.031 992.589C801.031 992.589 807.322 890.271 829.33 896.551C851.339 902.837 847.296 914.952 847.296 914.952C847.296 914.952 841.908 910.018 838.763 916.298C835.619 922.583 819.447 994.387 819.447 994.387" fill="#DCE8F6"/>
<path d="M801.031 992.589C801.031 992.589 807.322 890.271 829.33 896.551C851.339 902.837 847.296 914.952 847.296 914.952C847.296 914.952 841.908 910.018 838.763 916.298C835.619 922.583 819.447 994.387 819.447 994.387" stroke="#2861A4" stroke-width="1.19242" stroke-linecap="round" stroke-linejoin="round"/>
<path d="M810.941 992.788C810.941 992.788 819.933 941.889 844.251 946.731C868.568 951.571 829.153 990.347 822.547 993.813" fill="#A5C5E8"/>
<path d="M810.941 992.788C810.941 992.788 819.933 941.889 844.251 946.731C868.568 951.571 829.153 990.347 822.547 993.813" stroke="#2861A4" stroke-width="1.19242" stroke-miterlimit="10"/>
<path d="M790.703 878.602C790.703 878.602 802.506 952.177 798.462 992.566" stroke="#2861A4" stroke-width="0.794946" stroke-linecap="round" stroke-linejoin="round"/>
<path d="M773.633 918.094C773.633 918.094 788.903 971.496 790.252 989.896" stroke="#2861A4" stroke-width="0.794946" stroke-linecap="round" stroke-linejoin="round"/>
<path d="M761.504 952.648C761.504 952.648 779.469 979.576 782.166 991.242" stroke="#2861A4" stroke-width="0.794946" stroke-linecap="round" stroke-linejoin="round"/>
<path d="M830.228 903.73C830.228 903.73 811.811 958.927 806.871 988.998" stroke="#2861A4" stroke-width="0.794946" stroke-linecap="round" stroke-linejoin="round"/>
<path d="M815.62 992.263L815.188 992.02C825.409 973.814 839.77 954.931 839.912 954.742L840.306 955.042C840.162 955.23 825.825 974.09 815.62 992.263Z" stroke="#2861A4" stroke-width="0.794946" stroke-linecap="round" stroke-linejoin="round"/>
<path d="M840.113 990.352H765.848V1006.95H840.113V990.352Z" fill="#5786C5" stroke="#2861A4" stroke-width="1.19242" stroke-miterlimit="10"/>
<path d="M1427.45 749.077V739.26H1419.59C1418.95 736.037 1417.68 732.973 1415.85 730.242L1421.41 724.686L1414.46 717.743L1408.9 723.299C1406.17 721.471 1403.1 720.201 1399.87 719.562V711.707H1390.05V719.562C1386.82 720.201 1383.75 721.471 1381.02 723.299L1375.46 717.743L1368.51 724.686L1374.07 730.242C1372.24 732.973 1370.97 736.038 1370.33 739.26H1362.47V749.077H1370.33C1370.97 752.3 1372.24 755.364 1374.07 758.095L1368.51 763.652L1375.46 770.594L1381.02 765.038C1383.75 766.867 1386.82 768.137 1390.05 768.776V776.631H1399.87V768.776C1403.1 768.136 1406.17 766.866 1408.9 765.038L1414.46 770.594L1421.41 763.652L1415.85 758.095C1417.68 755.365 1418.95 752.3 1419.59 749.077H1427.45ZM1394.96 758.082C1392.21 758.082 1389.52 757.267 1387.22 755.738C1384.93 754.209 1383.15 752.037 1382.09 749.494C1381.04 746.952 1380.76 744.155 1381.3 741.456C1381.84 738.757 1383.16 736.278 1385.11 734.332C1387.06 732.386 1389.54 731.06 1392.24 730.523C1394.94 729.986 1397.74 730.262 1400.29 731.315C1402.83 732.368 1405.01 734.151 1406.54 736.439C1408.07 738.727 1408.89 741.417 1408.89 744.169C1408.89 747.858 1407.42 751.397 1404.81 754.006C1402.2 756.615 1398.65 758.081 1394.96 758.082V758.082Z" fill="#A5C5E8"/>
<path d="M1111.54 490.908V484.023H1106.02C1105.57 481.764 1104.68 479.615 1103.4 477.7L1107.3 473.804L1102.43 468.936L1098.53 472.832C1096.61 471.55 1094.46 470.659 1092.2 470.211V464.703H1085.31V470.211C1083.04 470.659 1080.89 471.55 1078.98 472.832L1075.08 468.936L1070.21 473.804L1074.11 477.7C1072.82 479.614 1071.93 481.763 1071.48 484.023H1065.97V490.908H1071.48C1071.93 493.168 1072.82 495.317 1074.11 497.231L1070.21 501.127L1075.08 505.995L1078.98 502.099C1080.89 503.381 1083.04 504.272 1085.31 504.72V510.228H1092.2V504.72C1094.46 504.271 1096.61 503.381 1098.53 502.099L1102.43 505.995L1107.3 501.127L1103.4 497.231C1104.68 495.316 1105.57 493.167 1106.02 490.908H1111.54ZM1088.75 497.221C1086.82 497.222 1084.93 496.65 1083.33 495.578C1081.72 494.506 1080.47 492.982 1079.73 491.2C1078.99 489.417 1078.8 487.455 1079.17 485.563C1079.55 483.67 1080.48 481.932 1081.85 480.568C1083.21 479.203 1084.95 478.274 1086.85 477.897C1088.74 477.521 1090.7 477.714 1092.49 478.452C1094.27 479.19 1095.8 480.441 1096.87 482.045C1097.94 483.649 1098.52 485.536 1098.52 487.465C1098.52 490.052 1097.49 492.534 1095.66 494.363C1093.83 496.193 1091.34 497.221 1088.75 497.221V497.221Z" fill="#5786C5"/>
<path d="M1113.65 939.25C1113.65 941.551 1113.2 943.829 1112.32 945.955C1111.44 948.081 1110.15 950.012 1108.52 951.639C1106.89 953.266 1104.96 954.556 1102.83 955.436C1100.7 956.316 1098.42 956.769 1096.12 956.768H969.867C967.565 956.768 965.284 956.316 963.157 955.436C961.03 954.556 959.097 953.265 957.468 951.638C955.84 950.012 954.549 948.08 953.668 945.955C952.788 943.829 952.335 941.551 952.336 939.25V939.25C952.335 936.95 952.787 934.671 953.668 932.546C954.549 930.42 955.84 928.488 957.468 926.861C959.096 925.234 961.029 923.944 963.157 923.063C965.284 922.183 967.564 921.73 969.867 921.73H1096.12C1098.42 921.73 1100.7 922.183 1102.83 923.063C1104.96 923.943 1106.89 925.234 1108.52 926.861C1110.15 928.488 1111.44 930.419 1112.32 932.545C1113.2 934.671 1113.65 936.95 1113.65 939.25Z" fill="white" stroke="#2861A4" stroke-width="1.19242" stroke-linecap="round" stroke-linejoin="round"/>
<path d="M1113.65 838.341C1113.65 840.642 1113.2 842.92 1112.32 845.046C1111.44 847.172 1110.15 849.103 1108.52 850.73C1106.89 852.357 1104.96 853.647 1102.83 854.528C1100.7 855.408 1098.42 855.86 1096.12 855.86H969.867C967.564 855.86 965.284 855.407 963.157 854.527C961.029 853.647 959.096 852.357 957.468 850.73C955.84 849.103 954.549 847.171 953.668 845.046C952.788 842.92 952.335 840.642 952.336 838.341V838.341C952.335 836.04 952.788 833.762 953.668 831.637C954.549 829.511 955.84 827.58 957.468 825.953C959.096 824.326 961.029 823.036 963.157 822.156C965.284 821.276 967.565 820.823 969.867 820.824H1096.12C1098.42 820.823 1100.7 821.276 1102.83 822.156C1104.96 823.036 1106.89 824.326 1108.52 825.952C1110.15 827.579 1111.44 829.511 1112.32 831.636C1113.2 833.762 1113.65 836.04 1113.65 838.341V838.341Z" fill="white" stroke="#2861A4" stroke-width="1.19242" stroke-linecap="round" stroke-linejoin="round"/>
<path d="M1037.33 843.722C1037.33 844.827 1037.11 845.921 1036.69 846.942C1036.26 847.962 1035.64 848.89 1034.86 849.671C1034.08 850.452 1033.15 851.072 1032.13 851.495C1031.11 851.917 1030.01 852.135 1028.91 852.134H968.296C967.19 852.135 966.096 851.917 965.074 851.495C964.052 851.072 963.124 850.452 962.343 849.671C961.561 848.89 960.941 847.962 960.518 846.942C960.095 845.921 959.878 844.827 959.879 843.722V843.722C959.878 842.618 960.096 841.524 960.519 840.503C960.941 839.483 961.561 838.556 962.343 837.775C963.125 836.994 964.053 836.374 965.074 835.952C966.096 835.529 967.191 835.312 968.296 835.313H1028.91C1030.01 835.312 1031.11 835.529 1032.13 835.952C1033.15 836.374 1034.08 836.994 1034.86 837.775C1035.64 838.556 1036.26 839.483 1036.69 840.503C1037.11 841.524 1037.33 842.618 1037.33 843.722V843.722Z" fill="#A5C5E8"/>
<path d="M1040.23 943.504C1040.23 944.608 1040.01 945.702 1039.59 946.723C1039.16 947.743 1038.54 948.671 1037.76 949.452C1036.98 950.233 1036.05 950.853 1035.03 951.275C1034.01 951.698 1032.91 951.915 1031.81 951.915H971.195C970.089 951.915 968.994 951.698 967.973 951.276C966.951 950.853 966.023 950.233 965.241 949.452C964.459 948.671 963.84 947.744 963.417 946.723C962.994 945.702 962.777 944.608 962.777 943.504V943.504C962.777 942.399 962.994 941.305 963.417 940.285C963.84 939.264 964.46 938.337 965.242 937.556C966.023 936.775 966.951 936.155 967.973 935.733C968.994 935.31 970.089 935.093 971.195 935.094H1031.81C1032.91 935.093 1034.01 935.311 1035.03 935.733C1036.05 936.155 1036.98 936.775 1037.76 937.556C1038.54 938.337 1039.16 939.264 1039.59 940.285C1040.01 941.305 1040.23 942.399 1040.23 943.504Z" fill="#A5C5E8"/>
<path d="M1474.42 878.547C1474.42 878.547 1648.56 891.337 1740.35 835.465" stroke="#2861A4" stroke-width="1.98736" stroke-linecap="round" stroke-linejoin="round"/>
<path d="M1380.02 953.344L1389.97 974.458L1369.97 980.151L1360.75 958.725" fill="white"/>
<path d="M1380.02 953.344L1389.97 974.458L1369.97 980.151L1360.75 958.725" stroke="#2861A4" stroke-width="1.19242" stroke-linecap="round" stroke-linejoin="round"/>
<path d="M1255.08 966.695L1260.68 988.947L1240.99 994.02L1240.16 968.454" fill="white"/>
<path d="M1255.08 966.695L1260.68 988.947L1240.99 994.02L1240.16 968.454" stroke="#2861A4" stroke-width="1.19242" stroke-linecap="round" stroke-linejoin="round"/>
<path d="M1275.68 702.188C1275.68 702.188 1302.54 718.35 1310.11 741.033C1317.68 763.716 1325.63 863.145 1338.11 879.733C1350.6 896.321 1391.32 950.552 1391.32 950.552L1360.13 968.458C1360.13 968.458 1313.52 904.825 1302.54 886.396C1291.57 867.967 1273.41 784.794 1273.41 784.794C1273.41 784.794 1249.95 849.147 1248.81 875.611C1247.67 902.076 1266.58 973.426 1266.58 973.426L1235.19 974.357C1235.19 974.357 1215.51 907.274 1213.62 872.586C1211.73 837.902 1235.94 735.83 1235.94 735.83" fill="#204283"/>
<path d="M1174.21 760.295C1179.79 742.743 1182.48 722.265 1177.48 700.865C1163.29 640.186 1145.7 669.107 1145.7 685.554C1145.7 685.554 1151.53 719.898 1148.39 754.459C1153.06 757.796 1161.11 761.158 1174.21 760.295Z" fill="#A5C5E8" stroke="#2861A4" stroke-width="1.19242" stroke-linecap="round" stroke-linejoin="round"/>
<path d="M1148.39 754.457C1146.44 775.896 1141.05 797.418 1128.66 810.877L1143.99 814.846C1143.99 814.846 1163.96 792.506 1174.21 760.293C1161.11 761.155 1153.06 757.794 1148.39 754.457Z" fill="white" stroke="#2861A4" stroke-width="1.19242" stroke-linecap="round" stroke-linejoin="round"/>
<path d="M1142.29 684.984C1142.29 684.984 1147.96 652.091 1182.59 656.629C1217.21 661.167 1275.67 701.997 1275.67 701.997C1275.67 701.997 1255.24 743.962 1238.21 744.529C1221.18 745.095 1142.29 711.637 1142.29 687.253" fill="#204283"/>
<path d="M1130.94 812.293L1124.41 823.92L1110.79 835.262L1141.15 837.246L1138.31 828.172L1141.72 814.563" fill="#A5C5E8"/>
<path d="M1130.94 812.293L1124.41 823.92L1110.79 835.262L1141.15 837.246L1138.31 828.172L1141.72 814.563" stroke="#2861A4" stroke-width="1.19242" stroke-linecap="round" stroke-linejoin="round"/>
<path d="M1181.17 716.032C1181.17 716.032 1166.7 692.169 1172.37 678.18C1178.05 664.193 1183.47 663.271 1183.47 663.271C1183.47 663.271 1158.47 652.663 1153.36 673.926C1148.25 695.193 1166.55 709.654 1166.55 709.654L1181.17 716.032Z" fill="#A5C5E8"/>
<path d="M1187.41 710.597C1187.41 710.597 1166.13 665.324 1201.13 668.725C1230.33 671.564 1246.74 701.943 1241.82 709.694C1236.9 717.444 1187.41 710.597 1187.41 710.597Z" fill="#A5C5E8"/>
<path d="M1372.8 996.41L1374.58 993.246L1396.45 988.164L1399.32 993.911C1399.32 993.911 1336.37 1011.63 1334.47 1007.05C1333.86 1005.59 1333.36 1004.76 1333.36 1003.97L1372.8 996.41Z" fill="#A5C5E8" stroke="#2861A4" stroke-width="1.19242" stroke-linecap="round" stroke-linejoin="round"/>
<path d="M1372.8 996.409L1333.36 1003.97C1333.34 1002.3 1330.27 1001 1338.55 994.179C1343.04 990.477 1353.5 988.606 1356.78 985.177C1360.21 981.548 1362.9 977.289 1364.7 972.637C1364.7 972.637 1374.89 981.609 1379.33 978.875C1383.77 976.14 1389.09 973.457 1389.09 973.457L1396.45 988.163L1374.58 993.245L1372.8 996.409Z" fill="#A5C5E8" stroke="#2861A4" stroke-width="1.19242" stroke-linecap="round" stroke-linejoin="round"/>
<path d="M1241.7 1004.64L1244.05 1001.86L1266.48 1000.99L1268.22 1007.18C1268.22 1007.18 1203.05 1012.72 1202.05 1007.87C1201.73 1006.32 1201.39 1005.41 1201.53 1004.64L1241.7 1004.64Z" fill="#A5C5E8" stroke="#2861A4" stroke-width="1.19242" stroke-linecap="round" stroke-linejoin="round"/>
<path d="M1241.7 1004.64L1201.53 1004.64C1201.83 1002.99 1199.07 1001.14 1208.49 995.996C1213.59 993.209 1224.22 993.339 1228.09 990.59C1232.14 987.672 1235.58 983.995 1238.23 979.766C1238.23 979.766 1246.54 990.494 1251.42 988.646C1256.3 986.797 1262.02 985.159 1262.02 985.159L1266.48 1000.99L1244.05 1001.86L1241.7 1004.64Z" fill="#A5C5E8" stroke="#2861A4" stroke-width="1.19242" stroke-linecap="round" stroke-linejoin="round"/>
<path d="M1151.09 667.973L1164.85 668.539C1164.85 668.539 1169.71 674.57 1168.68 681.087C1167.69 687.395 1163.65 690.798 1159.32 691.293C1154.99 691.79 1152.22 682.291 1152.22 682.291" fill="white"/>
<path d="M1151.09 667.973L1164.85 668.539C1164.85 668.539 1169.71 674.57 1168.68 681.087C1167.69 687.395 1163.65 690.798 1159.32 691.293C1154.99 691.79 1152.22 682.291 1152.22 682.291" stroke="#2861A4" stroke-width="1.19242" stroke-linecap="round" stroke-linejoin="round"/>
<path d="M1125.83 681.959C1125.83 681.959 1143.23 716.741 1150.8 706.912C1158.37 697.082 1155.91 669.105 1155.91 669.105C1155.91 669.105 1140.96 666.837 1125.83 681.959Z" fill="white" stroke="#2861A4" stroke-width="1.19242" stroke-linecap="round" stroke-linejoin="round"/>
<path d="M1144.94 679.313L1150.8 682.433C1150.8 682.433 1149.48 679.125 1151.47 678.274C1153.45 677.423 1157.52 679.881 1156.48 684.041L1160.45 677.802L1155.82 665.988" fill="#204283"/>
<path d="M1156.48 666.081C1156.48 666.081 1155.53 648.974 1138.79 651.242C1129.04 652.562 1109.18 669.485 1123.93 684.228C1123.93 684.228 1147.77 689.141 1156.48 666.081Z" fill="#204283"/>
<path d="M1226.86 742.45C1226.86 742.45 1277.19 730.352 1274.73 702.188L1285.51 709.938C1285.51 709.938 1282.01 725.875 1270.78 734.641C1260.44 742.706 1246.38 747.062 1234.62 746.42L1226.86 742.45Z" fill="white" stroke="#2861A4" stroke-width="1.19242" stroke-linecap="round" stroke-linejoin="round"/>
<path d="M1141.81 744.989L1138.82 760.016L1179 767.974L1181.99 752.948L1141.81 744.989Z" fill="#A5C5E8" stroke="#2861A4" stroke-width="1.19242" stroke-linecap="round" stroke-linejoin="round"/>
<path d="M1083.04 759.732C1075.53 759.675 1068.08 760.992 1061.05 763.618C1060.95 763.616 1060.86 763.604 1060.76 763.604C1056.47 763.604 1052.36 766.27 1048.55 771.141C1045.15 774.321 1042.91 778.001 1042.18 781.963C1032.29 803.32 1025.71 841.226 1025.71 884.435C1025.71 951.167 1041.4 1005.26 1060.76 1005.26C1062.58 1005.26 1077 1006.09 1083.04 1006.09C1105.75 1006.09 1124.16 994.878 1124.16 981.056V784.766C1124.16 770.941 1105.75 759.732 1083.04 759.732Z" fill="white" stroke="#2861A4" stroke-width="1.19242" stroke-linecap="round" stroke-linejoin="round"/>
<path d="M1142.56 884.437C1142.56 951.168 1126.87 1005.26 1107.5 1005.26C1088.14 1005.26 1072.45 951.168 1072.45 884.437C1072.45 817.703 1088.14 763.605 1107.5 763.605C1126.87 763.605 1142.56 817.703 1142.56 884.437Z" fill="#A5C5E8" stroke="#2861A4" stroke-width="1.19242" stroke-miterlimit="10"/>
<path d="M1299.29 883.3C1299.29 876.237 1302.1 869.464 1307.1 864.471C1312.1 859.477 1318.88 856.672 1325.94 856.672H1452.19C1459.26 856.672 1466.04 859.477 1471.04 864.471C1476.04 869.464 1478.85 876.237 1478.85 883.3C1478.85 890.363 1476.04 897.136 1471.04 902.13C1466.04 907.123 1459.26 909.929 1452.19 909.929H1325.94C1318.88 909.929 1312.1 907.123 1307.1 902.13C1302.1 897.136 1299.29 890.363 1299.29 883.3V883.3Z" fill="white" stroke="#2861A4" stroke-width="1.19242" stroke-linecap="round" stroke-linejoin="round"/>
<path d="M1462.74 862.914C1462.31 868.703 1459.71 874.116 1455.46 878.067C1451.2 882.019 1445.61 884.216 1439.8 884.219H1330.73C1326.12 884.225 1321.62 882.845 1317.81 880.257C1317.77 880.82 1317.73 881.383 1317.73 881.957C1317.73 888.059 1320.15 893.911 1324.47 898.225C1328.79 902.54 1334.65 904.963 1340.76 904.963H1449.82C1454.75 904.964 1459.55 903.385 1463.51 900.46C1467.47 897.534 1470.39 893.415 1471.84 888.709C1473.28 884.003 1473.18 878.957 1471.54 874.314C1469.9 869.671 1466.82 865.675 1462.74 862.914V862.914Z" fill="#A5C5E8"/>
<path d="M1243.18 873.491C1243.18 866.957 1244.47 860.487 1246.97 854.45C1249.47 848.413 1253.14 842.928 1257.76 838.307C1262.39 833.687 1267.88 830.022 1273.92 827.521C1279.96 825.021 1286.44 823.734 1292.98 823.734V823.734C1299.52 823.734 1306 825.021 1312.04 827.521C1318.08 830.021 1323.57 833.687 1328.19 838.307C1332.82 842.928 1336.49 848.413 1338.99 854.45C1341.49 860.487 1342.78 866.957 1342.78 873.491V893.11C1342.78 899.644 1341.49 906.114 1338.99 912.152C1336.49 918.189 1332.82 923.674 1328.2 928.295C1323.57 932.916 1318.08 936.581 1312.04 939.081C1306 941.582 1299.52 942.868 1292.98 942.867V942.867C1286.44 942.868 1279.96 941.581 1273.92 939.081C1267.88 936.58 1262.39 932.915 1257.76 928.295C1253.14 923.674 1249.47 918.189 1246.97 912.152C1244.47 906.114 1243.18 899.644 1243.18 893.11V873.491Z" fill="white" stroke="#2861A4" stroke-width="1.19242" stroke-linecap="round" stroke-linejoin="round"/>
<path d="M1313.7 912.225C1307.8 912.226 1301.95 911.065 1296.5 908.808C1291.04 906.551 1286.08 903.243 1281.91 899.072C1277.74 894.901 1274.42 889.949 1272.17 884.499C1269.91 879.05 1268.75 873.209 1268.75 867.311V849.602C1268.74 843.621 1269.93 837.7 1272.25 832.188C1265.39 836.119 1259.69 841.791 1255.73 848.629C1251.77 855.467 1249.68 863.229 1249.68 871.131V888.841C1249.68 899.211 1253.28 909.262 1259.85 917.287C1266.43 925.312 1275.58 930.817 1285.75 932.868C1295.93 934.919 1306.5 933.389 1315.67 928.539C1324.85 923.688 1332.06 915.816 1336.09 906.257C1329.28 910.176 1321.56 912.234 1313.7 912.225V912.225Z" fill="#A5C5E8"/>
<path d="M1236.17 789.398H1136.57C1128.64 789.393 1120.8 791.072 1113.57 794.325C1094.71 834.937 1086.01 925.606 1113.58 972.276C1120.8 975.528 1128.64 977.207 1136.57 977.201H1236.17C1243.53 977.201 1250.83 975.752 1257.64 972.935C1264.45 970.118 1270.63 965.989 1275.84 960.784C1281.05 955.578 1285.19 949.398 1288.01 942.597C1290.83 935.795 1292.28 928.505 1292.28 921.143V845.457C1292.28 838.095 1290.83 830.805 1288.01 824.004C1285.19 817.202 1281.05 811.022 1275.84 805.817C1270.63 800.611 1264.45 796.482 1257.64 793.665C1250.83 790.848 1243.53 789.398 1236.17 789.398V789.398Z" fill="white" stroke="#2861A4" stroke-width="1.19242" stroke-linecap="round" stroke-linejoin="round"/>
<path d="M1271.69 942.012H1182.19C1175.07 942.018 1168.02 940.51 1161.53 937.588C1140.96 902.763 1142.87 840.702 1153.81 799.742H1139.92C1132.8 799.737 1125.75 801.246 1119.25 804.169C1102.31 840.665 1094.49 922.146 1119.26 964.088C1125.75 967.008 1132.8 968.516 1139.92 968.511H1229.42C1238.54 968.514 1247.49 966.046 1255.32 961.37C1263.14 956.694 1269.55 949.985 1273.86 941.958C1273.14 941.989 1272.42 942.012 1271.69 942.012Z" fill="#A5C5E8"/>
<path d="M1214.74 754.036C1216.94 740.973 1217.81 711.781 1213.56 697.461C1201.91 658.178 1184.68 682.466 1184.68 696.976C1184.68 696.976 1186.6 724.569 1185.32 755.16C1195.14 755.947 1205.01 755.569 1214.74 754.036V754.036Z" fill="#A5C5E8" stroke="#2861A4" stroke-width="1.19242" stroke-linecap="round" stroke-linejoin="round"/>
<path d="M1185.32 755.16C1184.28 779.895 1181.08 809.281 1166.61 824.999L1177.59 828.105C1177.59 828.105 1207.77 795.478 1214.74 754.035C1205.01 755.569 1195.13 755.946 1185.32 755.16V755.16Z" fill="white" stroke="#2861A4" stroke-width="1.19242" stroke-linecap="round" stroke-linejoin="round"/>
<path d="M1219.86 752.34H1178.42V769.729H1219.86V752.34Z" fill="#A5C5E8" stroke="#2861A4" stroke-width="1.19242" stroke-linecap="round" stroke-linejoin="round"/>
<path d="M1179.78 824.566L1167.87 819.941C1167.25 820.042 1166.64 820.222 1166.06 820.478C1165.17 820.885 1165.49 823.779 1165.49 823.779C1165.49 823.779 1158.32 828.834 1154.93 834.269C1151.54 839.705 1144.55 843.557 1147.31 844.773C1150.08 845.993 1152.28 841.02 1153.42 842.181C1153.99 842.762 1152.33 847.456 1149.71 851.623C1147.09 855.789 1143.5 859.423 1145.61 859.86C1149.85 860.738 1157.87 847.228 1157.87 847.228C1157.87 847.228 1156.26 851.982 1154.26 856.822C1152.11 862.018 1149.63 867.358 1152.11 868.33C1154.25 869.17 1156.17 864.372 1158.7 859.842C1160.39 856.875 1162.25 854.008 1164.27 851.254C1164.27 851.254 1158.89 867.409 1161.27 866.483C1163.66 865.558 1168.14 851.07 1169.14 851.485C1170.14 851.899 1167.37 862.189 1169.12 861.969C1170.87 861.749 1176.25 844.325 1176.25 844.325C1176.25 844.325 1180.82 834.685 1178.9 828.559C1178.9 828.559 1181.82 826.237 1179.78 824.566Z" fill="#204283"/>
<path d="M1311.09 727.554C1311.53 728.24 1311.83 729.007 1311.98 729.81C1312.12 730.613 1312.1 731.436 1311.93 732.233C1311.75 733.029 1311.42 733.784 1310.96 734.453C1310.49 735.122 1309.9 735.693 1309.21 736.133L1295.08 745.174C1294.39 745.613 1293.62 745.913 1292.82 746.057C1292.01 746.2 1291.19 746.184 1290.39 746.009C1289.59 745.835 1288.84 745.505 1288.17 745.038C1287.5 744.572 1286.93 743.978 1286.49 743.291L1268.06 714.526C1267.62 713.839 1267.31 713.072 1267.17 712.269C1267.03 711.467 1267.04 710.643 1267.22 709.847C1267.39 709.05 1267.72 708.296 1268.19 707.627C1268.66 706.957 1269.25 706.387 1269.94 705.947L1284.07 696.906C1284.76 696.466 1285.53 696.166 1286.33 696.023C1287.13 695.879 1287.96 695.895 1288.76 696.07C1289.55 696.245 1290.31 696.575 1290.98 697.041C1291.65 697.507 1292.22 698.101 1292.66 698.788L1311.09 727.554Z" fill="#A5C5E8" stroke="#2861A4" stroke-width="1.19242" stroke-linecap="round" stroke-linejoin="round"/>
<path d="M1275.16 724.178C1275.16 724.178 1292.98 723.473 1300.51 710.176Z" fill="#A5C5E8"/>
<path d="M1275.16 724.178C1275.16 724.178 1292.98 723.473 1300.51 710.176" stroke="#2861A4" stroke-width="1.19242" stroke-linecap="round" stroke-linejoin="round"/>
<path d="M1267.69 616.388C1267.69 618.967 1267.18 621.521 1266.19 623.904C1265.2 626.287 1263.75 628.453 1261.93 630.276C1260.1 632.1 1257.94 633.547 1255.55 634.534C1253.16 635.521 1250.61 636.029 1248.03 636.029H1182.49C1177.28 636.029 1172.28 633.96 1168.59 630.276C1164.91 626.593 1162.84 621.597 1162.84 616.388V616.388C1162.84 611.178 1164.91 606.183 1168.59 602.499C1172.28 598.816 1177.28 596.746 1182.49 596.746H1248.03C1250.61 596.746 1253.16 597.254 1255.55 598.241C1257.94 599.228 1260.1 600.675 1261.93 602.499C1263.75 604.323 1265.2 606.488 1266.19 608.871C1267.18 611.254 1267.69 613.808 1267.69 616.388V616.388Z" fill="#204283"/>
<path d="M1186.14 616.387H1162.84V635.948H1186.14V616.387Z" fill="#204283"/>
<path d="M525.604 581.59H430.289C414.498 581.59 401.695 596.165 401.695 614.144C401.695 632.123 414.498 646.699 430.289 646.699H525.604C526.455 646.699 527.296 646.648 528.129 646.565H554.198V614.144C554.198 596.165 541.396 581.59 525.604 581.59Z" fill="#5786C5"/>
<path d="M1199.24 615.742C1199.24 616.318 1199.07 616.88 1198.75 617.359C1198.43 617.837 1197.97 618.21 1197.44 618.431C1196.91 618.651 1196.32 618.709 1195.76 618.596C1195.19 618.484 1194.67 618.207 1194.27 617.8C1193.86 617.393 1193.58 616.874 1193.47 616.31C1193.36 615.745 1193.42 615.16 1193.64 614.628C1193.86 614.096 1194.23 613.642 1194.71 613.322C1195.19 613.003 1195.75 612.832 1196.33 612.832C1196.71 612.832 1197.09 612.907 1197.44 613.053C1197.8 613.2 1198.12 613.414 1198.39 613.684C1198.66 613.955 1198.87 614.275 1199.02 614.628C1199.16 614.982 1199.24 615.36 1199.24 615.742V615.742Z" fill="white"/>
<path d="M1218.17 615.742C1218.17 616.318 1218 616.88 1217.68 617.359C1217.36 617.837 1216.91 618.21 1216.37 618.431C1215.84 618.651 1215.26 618.708 1214.69 618.596C1214.13 618.484 1213.61 618.207 1213.2 617.8C1212.79 617.393 1212.52 616.874 1212.4 616.31C1212.29 615.745 1212.35 615.16 1212.57 614.628C1212.79 614.096 1213.16 613.642 1213.64 613.322C1214.12 613.003 1214.68 612.832 1215.26 612.832C1215.64 612.832 1216.02 612.907 1216.38 613.053C1216.73 613.2 1217.05 613.414 1217.32 613.684C1217.59 613.955 1217.81 614.275 1217.95 614.628C1218.1 614.982 1218.17 615.36 1218.17 615.742Z" fill="white"/>
<path d="M1237.1 615.742C1237.1 616.318 1236.93 616.88 1236.61 617.359C1236.29 617.837 1235.84 618.21 1235.3 618.43C1234.77 618.65 1234.19 618.708 1233.62 618.596C1233.06 618.483 1232.54 618.206 1232.13 617.799C1231.72 617.392 1231.45 616.873 1231.33 616.309C1231.22 615.744 1231.28 615.159 1231.5 614.628C1231.72 614.096 1232.09 613.642 1232.57 613.322C1233.05 613.002 1233.61 612.832 1234.19 612.832C1234.57 612.832 1234.95 612.907 1235.3 613.054C1235.66 613.2 1235.98 613.414 1236.25 613.685C1236.52 613.955 1236.73 614.276 1236.88 614.629C1237.03 614.982 1237.1 615.36 1237.1 615.742V615.742Z" fill="white"/>
<path d="M451.96 620.191H448.561L447.146 628.84H442.944L444.359 620.191H439.672V616.33H444.993L445.922 610.761H441.255V606.901H446.555L448.012 598.125H452.193L450.757 606.901H454.156L455.613 598.125H459.815L458.358 606.901H463.236V610.761H457.724L456.795 616.33H461.631V620.191H456.162L454.747 628.84H450.545L451.96 620.191ZM449.194 616.33H452.594L453.523 610.761H450.123L449.194 616.33Z" fill="white"/>
<path d="M481.086 620.191H477.686L476.271 628.84H472.07L473.484 620.191H468.797V616.33H474.118L475.047 610.761H470.38V606.901H475.68L477.137 598.125H481.318L479.882 606.901H483.281L484.738 598.125H488.94L487.483 606.901H492.361V610.761H486.849L485.921 616.33H490.756V620.191H485.287L483.872 628.84H479.671L481.086 620.191ZM478.319 616.33H481.719L482.648 610.761H479.248L478.319 616.33Z" fill="white"/>
<path d="M510.21 620.191H506.811L505.396 628.84H501.195L502.61 620.191H497.922V616.33H503.243L504.172 610.761H499.505V606.901H504.805L506.262 598.125H510.443L509.007 606.901H512.406L513.863 598.125H518.065L516.608 606.901H521.486V610.761H515.974L515.046 616.33H519.881V620.191H514.412L512.997 628.84H508.795L510.21 620.191ZM507.444 616.33H510.844L511.773 610.761H508.373L507.444 616.33Z" fill="white"/>
</g>
<defs>
<clipPath id="clip0_3752_17432">
<rect width="1920" height="1381" fill="white"/>
</clipPath>
</defs>
</svg>
