<svg width="90" height="61" viewBox="0 0 90 61" fill="none" xmlns="http://www.w3.org/2000/svg">
<mask id="mask0_1484_10188" style="mask-type:luminance" maskUnits="userSpaceOnUse" x="19" y="0" width="54" height="45">
<path d="M19.6172 0H72.5616V44.8969H19.6172V0Z" fill="white"/>
</mask>
<g mask="url(#mask0_1484_10188)">
<path fill-rule="evenodd" clip-rule="evenodd" d="M34.4958 15.5282L39.3644 12.5875L44.3633 9.77707L51.4137 5.68711V0L44.3633 4.08996L39.3644 6.90042L34.4958 9.77707L29.4947 12.5875L34.4958 15.5282ZM24.8158 32.6513L36.0973 39.1039L41.0322 41.9165L45.9671 44.8549L50.9019 41.9165L55.8368 39.1039L72.3731 29.6489V24.0257L55.8368 33.4167L50.9019 36.2934L45.9671 39.1039L41.0322 36.2934L36.0973 33.4167L24.8158 26.9641V21.3432L36.0973 27.7958L45.9671 33.4167L55.8368 27.7958L72.3731 18.2746V12.5875L55.8368 22.1087L50.9019 24.9192L45.9671 27.7958L41.0322 24.9192L36.0973 22.1087L19.625 12.5875V29.6489L24.8158 32.6513ZM44.7493 21.405L49.6842 18.5945L54.6191 15.7179L59.5539 12.9074V7.22029L54.6191 10.0969L44.7493 15.7179L39.8145 18.5945L44.7493 21.405Z" fill="white"/>
</g>
<path d="M2.34283 54.4181V56.483H5.93423V57.7272H0.851562V50.1914H5.85481V51.4444H2.34283V53.2004H5.41361V54.4181H2.34283Z" fill="white"/>
<path d="M8.66443 57.8201C8.15264 57.8201 7.75997 57.6833 7.49083 57.4054C7.22611 57.1296 7.09375 56.7083 7.09375 56.1435V49.7461H8.52325V56.0906C8.52325 56.4392 8.66664 56.6112 8.95563 56.6112C9.03725 56.6112 9.12329 56.598 9.21153 56.5671L9.29094 56.5936L9.41448 57.6878C9.33727 57.7275 9.23138 57.7606 9.09681 57.7848C8.96666 57.8069 8.82327 57.8201 8.66443 57.8201Z" fill="white"/>
<path d="M15.2185 55.1985H11.5565C11.6028 55.6993 11.744 56.0611 11.9801 56.2839C12.2205 56.5089 12.5492 56.6192 12.9684 56.6192C13.2905 56.6192 13.553 56.5618 13.7537 56.4427C13.9589 56.3192 14.1243 56.1339 14.2479 55.8868H14.3626L15.3068 56.4868C15.1237 56.8883 14.8435 57.2104 14.4685 57.4575C14.0912 57.7045 13.5905 57.8281 12.9684 57.8281C12.3794 57.8281 11.8698 57.7178 11.4418 57.4928C11.0183 57.2699 10.6874 56.9368 10.4535 56.4956C10.2241 56.0544 10.1094 55.5162 10.1094 54.8808C10.1094 54.2345 10.2285 53.6896 10.4712 53.2484C10.7182 52.8072 11.0469 52.4785 11.4595 52.2601C11.8764 52.0439 12.3441 51.9336 12.8625 51.9336C13.6677 51.9336 14.2832 52.1454 14.7067 52.5689C15.1347 52.9925 15.3509 53.619 15.3509 54.4485C15.3509 54.7441 15.342 54.9735 15.3244 55.1367L15.2185 55.1985ZM13.992 54.2808C13.9743 53.8462 13.8706 53.5308 13.6831 53.3366C13.5 53.1381 13.2265 53.0366 12.8625 53.0366C12.1433 53.0366 11.7198 53.4513 11.5918 54.2808H13.992Z" fill="white"/>
<path d="M19.6625 57.7061H17.9683L15.8594 52.0234H17.3595L18.7713 56.0737H18.886L20.3067 52.0234H21.7627L19.6625 57.7061Z" fill="white"/>
<path d="M23.9856 57.8281C23.6194 57.8281 23.3017 57.7619 23.0326 57.6339C22.7679 57.4994 22.5605 57.303 22.4149 57.0427C22.2737 56.7846 22.2031 56.4736 22.2031 56.1074C22.2031 55.7677 22.2737 55.4853 22.4149 55.2603C22.5605 55.0308 22.7855 54.8433 23.0855 54.6955C23.39 54.5499 23.787 54.4374 24.2768 54.3602C24.6165 54.3029 24.8768 54.2411 25.0533 54.1749C25.2298 54.1109 25.3467 54.0381 25.4063 53.9543C25.4702 53.8727 25.5033 53.7668 25.5033 53.6366C25.5033 53.4602 25.4371 53.3256 25.3092 53.2307C25.1857 53.1315 24.9739 53.0807 24.6739 53.0807C24.3606 53.0807 24.0606 53.1513 23.7738 53.2925C23.4914 53.4337 23.2444 53.619 23.0326 53.8484H22.9267L22.3355 52.9484C22.6223 52.6263 22.973 52.3748 23.3856 52.1983C23.8025 52.0218 24.2591 51.9336 24.7533 51.9336C25.4989 51.9336 26.0416 52.0924 26.3769 52.4101C26.7166 52.7278 26.8887 53.1822 26.8887 53.769V56.2397C26.8887 56.4934 26.999 56.6192 27.224 56.6192C27.3056 56.6192 27.3873 56.6059 27.4711 56.5751L27.5505 56.5927L27.6476 57.5898C27.5704 57.6428 27.4623 57.6869 27.3211 57.7222C27.1799 57.7509 27.0233 57.7663 26.8534 57.7663C26.5181 57.7663 26.2534 57.7023 26.0592 57.5722C25.8695 57.4376 25.735 57.2324 25.6533 56.9545L25.5386 56.9457C25.2607 57.5347 24.7445 57.8281 23.9856 57.8281ZM24.4444 56.7604C24.7731 56.7604 25.0357 56.6523 25.2298 56.4339C25.4283 56.2111 25.5298 55.9022 25.5298 55.5073V54.925L25.4327 54.9073C25.3445 54.9779 25.2298 55.0375 25.0886 55.0838C24.9518 55.1323 24.7533 55.1764 24.4886 55.2161C24.1819 55.2691 23.9613 55.3617 23.8268 55.4897C23.69 55.6132 23.6238 55.7897 23.6238 56.0191C23.6238 56.2618 23.6944 56.4471 23.8356 56.5751C23.9812 56.6986 24.1841 56.7604 24.4444 56.7604Z" fill="white"/>
<path d="M31.5784 56.3575L31.949 57.4164C31.7945 57.5465 31.6004 57.6458 31.3666 57.7164C31.1372 57.787 30.8746 57.8223 30.5812 57.8223C29.9635 57.8223 29.4915 57.6546 29.1694 57.3193C28.8517 56.984 28.6929 56.4987 28.6929 55.8633V53.1632H27.8281V52.0249H28.6929V50.9218L30.1224 50.6836V52.0249H31.7372V53.1632H30.1224V55.7574C30.1224 56.0398 30.1797 56.2472 30.2989 56.3751C30.4158 56.5053 30.5856 56.5692 30.8107 56.5692C31.0621 56.5692 31.2827 56.4987 31.4725 56.3575H31.5784Z" fill="white"/>
<path d="M37.6326 55.1985H33.9706C34.0169 55.6993 34.1581 56.0611 34.3941 56.2839C34.6346 56.5089 34.9633 56.6192 35.3824 56.6192C35.7045 56.6192 35.967 56.5618 36.1678 56.4427C36.3729 56.3192 36.5384 56.1339 36.6619 55.8868H36.7766L37.7208 56.4868C37.5377 56.8883 37.2576 57.2104 36.8825 57.4575C36.5053 57.7045 36.0045 57.8281 35.3824 57.8281C34.7934 57.8281 34.2838 57.7178 33.8559 57.4928C33.4323 57.2699 33.1014 56.9368 32.8676 56.4956C32.6382 56.0544 32.5234 55.5162 32.5234 54.8808C32.5234 54.2345 32.6426 53.6896 32.8852 53.2484C33.1323 52.8072 33.461 52.4785 33.8735 52.2601C34.2905 52.0439 34.7581 51.9336 35.2765 51.9336C36.0817 51.9336 36.6972 52.1454 37.1208 52.5689C37.5487 52.9925 37.7649 53.619 37.7649 54.4485C37.7649 54.7441 37.7561 54.9735 37.7385 55.1367L37.6326 55.1985ZM36.406 54.2808C36.3884 53.8462 36.2847 53.5308 36.0972 53.3366C35.9141 53.1381 35.6405 53.0366 35.2765 53.0366C34.5574 53.0366 34.1338 53.4513 34.0059 54.2808H36.406Z" fill="white"/>
<path d="M40.822 57.8281C40.4338 57.8281 40.0764 57.784 39.7543 57.6957C39.4366 57.6031 39.1631 57.4751 38.9337 57.3163C38.7042 57.1574 38.5322 56.9765 38.4219 56.7692L39.216 55.9132H39.3219C39.5161 56.1669 39.7389 56.3589 39.9926 56.4868C40.2507 56.6104 40.533 56.6721 40.8397 56.6721C41.1154 56.6721 41.325 56.6258 41.4662 56.5309C41.6074 56.4317 41.678 56.2883 41.678 56.0986C41.678 55.9574 41.625 55.8382 41.5191 55.7368C41.4176 55.6375 41.2566 55.5603 41.0338 55.5073L40.2749 55.322C39.7146 55.1941 39.3043 54.9911 39.0396 54.7132C38.7793 54.4374 38.6513 54.0845 38.6513 53.6543C38.6513 53.3013 38.7417 52.9969 38.9248 52.7366C39.1057 52.4719 39.3594 52.2733 39.6837 52.1365C40.0124 52.002 40.3985 51.9336 40.8397 51.9336C41.3515 51.9336 41.775 52.0086 42.1103 52.1542C42.4457 52.302 42.706 52.4983 42.8957 52.7454L42.1368 53.566H42.0309C41.8721 53.3896 41.6912 53.2616 41.4927 53.1778C41.2985 53.0962 41.0801 53.0543 40.8397 53.0543C40.2749 53.0543 39.9926 53.2285 39.9926 53.5749C39.9926 53.7293 40.0411 53.8528 40.1426 53.9455C40.2485 54.0337 40.4338 54.1087 40.6985 54.1661L41.4044 54.3249C41.9802 54.4485 42.4015 54.647 42.6663 54.9161C42.931 55.1875 43.0633 55.5559 43.0633 56.0191C43.0633 56.3787 42.9751 56.6964 42.7986 56.9721C42.6221 57.2435 42.3618 57.4553 42.0221 57.6075C41.6868 57.7531 41.2853 57.8281 40.822 57.8281Z" fill="white"/>
<path d="M47.3362 56.3575L47.7068 57.4164C47.5524 57.5465 47.3582 57.6458 47.1244 57.7164C46.895 57.787 46.6324 57.8223 46.339 57.8223C45.7214 57.8223 45.2493 57.6546 44.9272 57.3193C44.6095 56.984 44.4507 56.4987 44.4507 55.8633V53.1632H43.5859V52.0249H44.4507V50.9218L45.8802 50.6836V52.0249H47.495V53.1632H45.8802V55.7574C45.8802 56.0398 45.9376 56.2472 46.0567 56.3751C46.1736 56.5053 46.3435 56.5692 46.5685 56.5692C46.82 56.5692 47.0406 56.4987 47.2303 56.3575H47.3362Z" fill="white"/>
<path d="M50.0559 57.8281C49.6897 57.8281 49.372 57.7619 49.1029 57.6339C48.8382 57.4994 48.6308 57.303 48.4852 57.0427C48.344 56.7846 48.2734 56.4736 48.2734 56.1074C48.2734 55.7677 48.344 55.4853 48.4852 55.2603C48.6308 55.0308 48.8558 54.8433 49.1558 54.6955C49.4603 54.5499 49.8574 54.4374 50.3471 54.3602C50.6868 54.3029 50.9471 54.2411 51.1236 54.1749C51.3001 54.1109 51.417 54.0381 51.4766 53.9543C51.5405 53.8727 51.5736 53.7668 51.5736 53.6366C51.5736 53.4602 51.5075 53.3256 51.3795 53.2307C51.256 53.1315 51.0442 53.0807 50.7442 53.0807C50.4309 53.0807 50.1309 53.1513 49.8441 53.2925C49.5618 53.4337 49.3147 53.619 49.1029 53.8484H48.997L48.4058 52.9484C48.6926 52.6263 49.0433 52.3748 49.4559 52.1983C49.8728 52.0218 50.3294 51.9336 50.8236 51.9336C51.5692 51.9336 52.1119 52.0924 52.4472 52.4101C52.7869 52.7278 52.959 53.1822 52.959 53.769V56.2397C52.959 56.4934 53.0693 56.6192 53.2943 56.6192C53.376 56.6192 53.4576 56.6059 53.5414 56.5751L53.6208 56.5927L53.7179 57.5898C53.6407 57.6428 53.5326 57.6869 53.3914 57.7222C53.2502 57.7509 53.0936 57.7663 52.9237 57.7663C52.5884 57.7663 52.3237 57.7023 52.1296 57.5722C51.9398 57.4376 51.8053 57.2324 51.7236 56.9545L51.6089 56.9457C51.331 57.5347 50.8148 57.8281 50.0559 57.8281ZM50.5148 56.7604C50.8434 56.7604 51.106 56.6523 51.3001 56.4339C51.4986 56.2111 51.6001 55.9022 51.6001 55.5073V54.925L51.503 54.9073C51.4148 54.9779 51.3001 55.0375 51.1589 55.0838C51.0221 55.1323 50.8236 55.1764 50.5589 55.2161C50.2522 55.2691 50.0316 55.3617 49.8971 55.4897C49.7603 55.6132 49.6941 55.7897 49.6941 56.0191C49.6941 56.2618 49.7647 56.4471 49.9059 56.5751C50.0515 56.6986 50.2544 56.7604 50.5148 56.7604Z" fill="white"/>
<path d="M54.7717 57.7146V53.1614H53.9688V52.0231H54.7717C54.7122 51.7827 54.6835 51.5599 54.6835 51.3525C54.6835 50.9885 54.7651 50.6797 54.9306 50.426C55.0938 50.1679 55.3299 49.9737 55.6365 49.8436C55.9475 49.709 56.316 49.6406 56.7395 49.6406C57.3682 49.6406 57.8381 49.7509 58.1514 49.9671L57.816 51.0172L57.7102 51.0348C57.4918 50.8826 57.2182 50.8054 56.8895 50.8054C56.6292 50.8054 56.4351 50.8716 56.3071 50.9995C56.177 51.1231 56.113 51.2951 56.113 51.5113C56.113 51.6062 56.1174 51.6922 56.1306 51.7672C56.1417 51.8444 56.1615 51.9305 56.1924 52.0231H57.816V53.1614H56.1924V57.7146H54.7717Z" fill="white"/>
<path d="M59.0296 57.7146V53.1614H58.2266V52.0231H59.0296C58.97 51.7827 58.9413 51.5599 58.9413 51.3525C58.9413 50.9885 59.0229 50.6797 59.1884 50.426C59.3516 50.1679 59.5877 49.9737 59.8943 49.8436C60.2054 49.709 60.5738 49.6406 60.9973 49.6406C61.626 49.6406 62.0959 49.7509 62.4092 49.9671L62.0739 51.0172L61.968 51.0348C61.7496 50.8826 61.476 50.8054 61.1473 50.8054C60.887 50.8054 60.6929 50.8716 60.5649 50.9995C60.4348 51.1231 60.3708 51.2951 60.3708 51.5113C60.3708 51.6062 60.3752 51.6922 60.3885 51.7672C60.3995 51.8444 60.4193 51.9305 60.4502 52.0231H62.0739V53.1614H60.4502V57.7146H59.0296Z" fill="white"/>
<path d="M63.6226 51.3484C63.3689 51.3484 63.1593 51.2734 62.9961 51.119C62.8372 50.9602 62.7578 50.7572 62.7578 50.5102C62.7578 50.2631 62.8372 50.0645 62.9961 49.9101C63.1593 49.7513 63.3689 49.6719 63.6226 49.6719C63.7991 49.6719 63.9513 49.7116 64.0814 49.7866C64.216 49.8572 64.3197 49.9542 64.3903 50.0778C64.4653 50.2013 64.505 50.3469 64.505 50.5102C64.505 50.669 64.4653 50.8146 64.3903 50.9425C64.3197 51.0661 64.216 51.1676 64.0814 51.2426C63.9513 51.3132 63.7991 51.3484 63.6226 51.3484ZM62.9166 57.7106V52.0279H64.3461V57.7106H62.9166Z" fill="white"/>
<path d="M65.9688 57.7222V52.0395H67.3365V52.8689L67.4424 52.8954C67.7997 52.2557 68.3777 51.9336 69.1719 51.9336C69.8249 51.9336 70.3036 52.1145 70.6102 52.4719C70.9213 52.8248 71.0779 53.3432 71.0779 54.0249V57.7222H69.6484V54.2014C69.6484 53.8264 69.5712 53.555 69.419 53.3896C69.2645 53.2197 69.0241 53.1337 68.6954 53.1337C68.2829 53.1337 67.963 53.266 67.7336 53.5308C67.5086 53.7955 67.3982 54.2146 67.3982 54.7838V57.7222H65.9688Z" fill="white"/>
<path d="M74.7912 60.1183C73.8558 60.1183 73.1631 59.9794 72.7175 59.7036C72.2697 59.4323 72.0469 59.0506 72.0469 58.5565C72.0469 58.2609 72.1395 58.0182 72.3292 57.8241C72.5234 57.6366 72.7969 57.5108 73.1499 57.4446V57.3299C72.9602 57.2196 72.8234 57.0917 72.7352 56.9505C72.6513 56.8049 72.6116 56.6372 72.6116 56.4475C72.6116 55.9887 72.9072 55.6798 73.5028 55.521V55.4151C73.1962 55.2386 72.9668 55.0224 72.8146 54.7621C72.6601 54.504 72.5851 54.193 72.5851 53.8268C72.5851 53.4451 72.669 53.112 72.841 52.8296C73.0109 52.5429 73.2646 52.3179 73.5999 52.159C73.9352 52.0002 74.3367 51.9208 74.8088 51.9208C75.2787 51.9208 75.6559 52.0046 75.9383 52.1678C76.1148 51.9097 76.2162 51.6163 76.2471 51.2854L76.353 51.2148L77.3766 51.4707C77.3457 51.7421 77.2663 51.9693 77.1384 52.1502C77.0148 52.3333 76.8163 52.4987 76.5471 52.6443V52.7591C76.8648 53.0414 77.0236 53.4363 77.0236 53.9415C77.0236 54.29 76.9354 54.6033 76.7589 54.8857C76.5869 55.1636 76.3354 55.3842 76.0001 55.5475C75.6647 55.7063 75.2677 55.7857 74.8088 55.7857L74.5882 55.7769C74.4514 55.7725 74.3588 55.7681 74.3058 55.7681C74.1691 55.7681 74.0632 55.8034 73.9882 55.874C73.9176 55.9445 73.8823 56.0328 73.8823 56.1387C73.8823 56.2622 73.9286 56.3593 74.0235 56.4299C74.1227 56.496 74.2639 56.5313 74.447 56.5358L75.7265 56.5799C76.9795 56.6218 77.606 57.1623 77.606 58.2035C77.606 58.5741 77.5112 58.9006 77.3237 59.183C77.1406 59.4698 76.8383 59.697 76.4148 59.8624C75.9956 60.0323 75.4552 60.1183 74.7912 60.1183ZM74.8088 54.7798C75.0846 54.7798 75.2985 54.7004 75.453 54.5415C75.6052 54.3783 75.6824 54.1488 75.6824 53.8532C75.6824 53.5532 75.6052 53.3238 75.453 53.165C75.2985 53.0017 75.0846 52.9179 74.8088 52.9179C74.5264 52.9179 74.308 53.0017 74.1558 53.165C74.008 53.3238 73.9352 53.5532 73.9352 53.8532C73.9352 54.1533 74.008 54.3827 74.1558 54.5415C74.308 54.7004 74.5264 54.7798 74.8088 54.7798ZM74.7912 59.0859C75.2787 59.0859 75.6317 59.0153 75.85 58.8741C76.0729 58.7374 76.1854 58.5609 76.1854 58.3447C76.1854 58.1616 76.128 58.0292 76.0177 57.9476C75.9052 57.8638 75.7265 57.8197 75.4794 57.8152L74.35 57.7623C74.3147 57.7623 74.2794 57.7579 74.2441 57.7535C74.2132 57.7535 74.1845 57.7535 74.1558 57.7535C73.9132 57.7535 73.7279 57.802 73.5999 57.9035C73.4764 58.0094 73.4146 58.1528 73.4146 58.3359C73.4146 58.5763 73.5293 58.7616 73.7587 58.8918C73.9882 59.0197 74.3323 59.0859 74.7912 59.0859Z" fill="white"/>
<path d="M79.1521 57.7598C78.969 57.7598 78.8079 57.7245 78.6668 57.6539C78.5256 57.5789 78.4153 57.4752 78.3403 57.345C78.2697 57.2171 78.2344 57.0693 78.2344 56.9038C78.2344 56.7406 78.2697 56.5928 78.3403 56.4626C78.4153 56.3281 78.5256 56.2244 78.6668 56.1538C78.8079 56.0788 78.969 56.0391 79.1521 56.0391C79.333 56.0391 79.4962 56.0788 79.6374 56.1538C79.7786 56.2244 79.8845 56.3258 79.9551 56.4538C80.0301 56.5839 80.0698 56.7318 80.0698 56.895C80.0698 57.1487 79.9837 57.3583 79.8139 57.5215C79.6484 57.6803 79.4278 57.7598 79.1521 57.7598Z" fill="white"/>
<path d="M82.8293 57.8281C82.4631 57.8281 82.1455 57.7619 81.8763 57.6339C81.6116 57.4994 81.4043 57.303 81.2587 57.0427C81.1175 56.7846 81.0469 56.4736 81.0469 56.1074C81.0469 55.7677 81.1175 55.4853 81.2587 55.2603C81.4043 55.0308 81.6293 54.8433 81.9293 54.6955C82.2337 54.5499 82.6308 54.4374 83.1205 54.3602C83.4603 54.3029 83.7206 54.2411 83.897 54.1749C84.0735 54.1109 84.1904 54.0381 84.25 53.9543C84.314 53.8727 84.3471 53.7668 84.3471 53.6366C84.3471 53.4602 84.2809 53.3256 84.1529 53.2307C84.0294 53.1315 83.8176 53.0807 83.5176 53.0807C83.2044 53.0807 82.9043 53.1513 82.6176 53.2925C82.3352 53.4337 82.0881 53.619 81.8763 53.8484H81.7704L81.1792 52.9484C81.466 52.6263 81.8168 52.3748 82.2293 52.1983C82.6462 52.0218 83.1029 51.9336 83.597 51.9336C84.3427 51.9336 84.8853 52.0924 85.2207 52.4101C85.5604 52.7278 85.7325 53.1822 85.7325 53.769V56.2397C85.7325 56.4934 85.8428 56.6192 86.0678 56.6192C86.1494 56.6192 86.231 56.6059 86.3148 56.5751L86.3943 56.5927L86.4913 57.5898C86.4141 57.6428 86.306 57.6869 86.1648 57.7222C86.0237 57.7509 85.867 57.7663 85.6972 57.7663C85.3618 57.7663 85.0971 57.7023 84.903 57.5722C84.7133 57.4376 84.5787 57.2324 84.4971 56.9545L84.3824 56.9457C84.1044 57.5347 83.5882 57.8281 82.8293 57.8281ZM83.2882 56.7604C83.6169 56.7604 83.8794 56.6523 84.0735 56.4339C84.2721 56.2111 84.3735 55.9022 84.3735 55.5073V54.925L84.2765 54.9073C84.1882 54.9779 84.0735 55.0375 83.9323 55.0838C83.7956 55.1323 83.597 55.1764 83.3323 55.2161C83.0257 55.2691 82.8051 55.3617 82.6705 55.4897C82.5337 55.6132 82.4676 55.7897 82.4676 56.0191C82.4676 56.2618 82.5381 56.4471 82.6793 56.5751C82.8249 56.6986 83.0279 56.7604 83.2882 56.7604Z" fill="white"/>
<path d="M88.1304 51.3484C87.8767 51.3484 87.6671 51.2734 87.5039 51.119C87.345 50.9602 87.2656 50.7572 87.2656 50.5102C87.2656 50.2631 87.345 50.0645 87.5039 49.9101C87.6671 49.7513 87.8767 49.6719 88.1304 49.6719C88.3069 49.6719 88.4591 49.7116 88.5892 49.7866C88.7238 49.8572 88.8275 49.9542 88.8981 50.0778C88.9731 50.2013 89.0128 50.3469 89.0128 50.5102C89.0128 50.669 88.9731 50.8146 88.8981 50.9425C88.8275 51.0661 88.7238 51.1676 88.5892 51.2426C88.4591 51.3132 88.3069 51.3484 88.1304 51.3484ZM87.4245 57.7106V52.0279H88.854V57.7106H87.4245Z" fill="white"/>
</svg>
